v -1.700323 0.65 0.751176
v -1.700323 0.65 1.105
v -0.802657 0.65 0.751176
newmtl 1
Ka 1.0 1.0 1.0
Kd 1.0 1.0 1.0
Ks 0.5019607843137255 0.5019607843137255 0.5019607843137255
d 0.0
endmtl
v -1.226841 0.65 1.105
v -1.226841 0.65 1.804381
v 1.700323 0.65 1.105
v 1.700323 0.65 0.751176
v 1.226841 0.65 1.105
v 0.796105 0.65 0.751176
v 1.226841 0.65 1.804381
v 0.796105 0.65 0.652891
v 0.737134 0.65 0.600473
v 0.704756 0.65 0.576268
v 0.623207 0.65 0.527295
v 0.53843 0.65 0.490518
v 0.456803 0.65 0.467159
v 0.376757 0.65 0.456322
v -0.38331 0.65 0.456322
v -0.421376 0.65 0.460073
v -0.513273 0.65 0.480465
v -0.6026 0.65 0.51374
v -0.679106 0.65 0.553941
v -0.743686 0.65 0.600473
v -0.802657 0.65 0.652891
v -1.226841 -0.65 1.105
v -1.700323 -0.65 1.105
v -1.700323 -0.65 0.751176
v 1.700323 -0.65 0.751176
v 1.700323 -0.65 1.105
v 0.796105 -0.65 0.751176
v 1.226841 -0.65 1.105
v 1.226841 -0.65 1.804381
v -0.802657 -0.65 0.751176
v -1.226841 -0.65 1.804381
v 0.796105 -0.65 0.652891
v 0.737134 -0.65 0.600473
v 0.704756 -0.65 0.576268
v 0.623207 -0.65 0.527295
v -0.38331 -0.65 0.456322
v 0.376757 -0.65 0.456322
v -0.802657 -0.65 0.652891
v -0.743686 -0.65 0.600473
v -0.679106 -0.65 0.553941
v -0.6026 -0.65 0.51374
v -0.513273 -0.65 0.480465
v -0.421376 -0.65 0.460073
v 0.456803 -0.65 0.467159
v 0.53843 -0.65 0.490518
v 1.252723 -0.646593 1.105
v 1.252723 0.646593 1.105
v 1.276841 -0.636603 1.105
v 1.276841 0.636603 1.105
v 1.297552 0.620711 1.105
v 1.313444 0.6 1.105
v 1.323434 0.575882 1.105
v 1.326841 0.55 1.105
v 1.326841 -0.55 1.105
v 1.323434 -0.575882 1.105
v 1.313444 -0.6 1.105
v 1.297552 -0.620711 1.105
v -1.252723 -0.646593 1.105
v -1.276841 -0.636603 1.105
v -1.297552 -0.620711 1.105
v -1.313444 -0.6 1.105
v -1.297552 0.620711 1.105
v -1.313444 0.6 1.105
v -1.323434 0.575882 1.105
v -1.276841 0.636603 1.105
v -1.252723 0.646593 1.105
v -1.323434 -0.575882 1.105
v -1.326841 -0.55 1.105
v -1.326841 0.55 1.105
v -1.326841 -0.55 1.804381
v -1.326841 0.55 1.804381
v 1.226841 0.55 1.904381
v -1.226841 0.55 1.904381
v 1.226841 -0.55 1.904381
v -1.226841 -0.55 1.904381
v 1.326841 -0.55 1.804381
v 1.326841 0.55 1.804381
v -1.323434 -0.575882 1.804381
v -1.313444 -0.6 1.804381
v -1.297552 -0.620711 1.804381
v -1.276841 -0.636603 1.804381
v -1.252723 -0.646593 1.804381
v -1.252723 0.55 1.900973
v -1.252723 -0.55 1.900973
v -1.276841 0.55 1.890983
v -1.276841 -0.55 1.890983
v -1.297552 0.55 1.875092
v -1.297552 -0.55 1.875092
v -1.313444 0.55 1.854381
v -1.313444 -0.55 1.854381
v -1.323434 0.55 1.830263
v -1.323434 -0.55 1.830263
v -1.323434 0.575882 1.804381
v -1.313444 0.6 1.804381
v -1.297552 0.620711 1.804381
v -1.276841 0.636603 1.804381
v -1.252723 0.646593 1.804381
v -1.252723 -0.575 1.897682
v -1.313444 -0.575 1.847682
v -1.323434 -0.562941 1.826795
v -1.323434 -0.568301 1.822682
v -1.323434 -0.575 1.81108
v -1.323434 -0.556699 1.829381
v -1.313444 -0.562941 1.852677
v -1.297552 -0.568301 1.872682
v -1.313444 -0.585355 1.839736
v -1.323434 -0.572414 1.817322
v -1.313444 -0.593301 1.829381
v -1.313444 -0.598296 1.817322
v -1.297552 -0.585355 1.865618
v -1.297552 -0.6 1.854381
v -1.297552 -0.611237 1.839736
v -1.297552 -0.618301 1.822682
v -1.276841 -0.572414 1.888033
v -1.276841 -0.593301 1.879381
v -1.276841 -0.611237 1.865618
v -1.276841 -0.625 1.847682
v -1.276841 -0.633652 1.826795
v -1.252723 -0.598296 1.888033
v -1.252723 -0.618301 1.872682
v -1.252723 -0.633652 1.852677
v -1.252723 -0.643301 1.829381
v -1.226841 -0.575882 1.900973
v -1.226841 -0.6 1.890983
v -1.226841 -0.620711 1.875092
v -1.226841 -0.636603 1.854381
v -1.226841 -0.646593 1.830263
v -1.252723 0.643301 1.829381
v -1.313444 0.593301 1.829381
v -1.323434 0.572414 1.817322
v -1.323434 0.568301 1.822682
v -1.323434 0.556699 1.829381
v -1.323434 0.575 1.81108
v -1.313444 0.598296 1.817322
v -1.297552 0.618301 1.822682
v -1.313444 0.585355 1.839736
v -1.323434 0.562941 1.826795
v -1.313444 0.575 1.847682
v -1.313444 0.562941 1.852677
v -1.297552 0.611237 1.839736
v -1.297552 0.6 1.854381
v -1.297552 0.585355 1.865618
v -1.297552 0.568301 1.872682
v -1.276841 0.633652 1.826795
v -1.276841 0.625 1.847682
v -1.276841 0.611237 1.865618
v -1.276841 0.593301 1.879381
v -1.276841 0.572414 1.888033
v -1.252723 0.633652 1.852677
v -1.252723 0.618301 1.872682
v -1.252723 0.598296 1.888033
v -1.252723 0.575 1.897682
v -1.226841 0.646593 1.830263
v -1.226841 0.636603 1.854381
v -1.226841 0.620711 1.875092
v -1.226841 0.6 1.890983
v -1.226841 0.575882 1.900973
v 1.323434 -0.575882 1.804381
v 1.313444 -0.6 1.804381
v 1.297552 -0.620711 1.804381
v 1.276841 -0.636603 1.804381
v 1.252723 -0.646593 1.804381
v 1.226841 -0.575882 1.900973
v 1.226841 -0.6 1.890983
v 1.226841 -0.620711 1.875092
v 1.226841 -0.636603 1.854381
v 1.226841 -0.646593 1.830263
v 1.226841 0.575882 1.900973
v 1.226841 0.6 1.890983
v 1.226841 0.620711 1.875092
v 1.226841 0.636603 1.854381
v 1.226841 0.646593 1.830263
v 1.323434 0.575882 1.804381
v 1.313444 0.6 1.804381
v 1.297552 0.620711 1.804381
v 1.276841 0.636603 1.804381
v 1.252723 0.646593 1.804381
v 1.251841 -0.575882 1.897682
v 1.251841 -0.636603 1.847682
v 1.239782 -0.646593 1.826795
v 1.245143 -0.646593 1.822682
v 1.251841 -0.646593 1.81108
v 1.23354 -0.646593 1.829381
v 1.239782 -0.636603 1.852677
v 1.245143 -0.620711 1.872682
v 1.262197 -0.636603 1.839736
v 1.249256 -0.646593 1.817322
v 1.270143 -0.636603 1.829381
v 1.275138 -0.636603 1.817322
v 1.262197 -0.620711 1.865618
v 1.276841 -0.620711 1.854381
v 1.288079 -0.620711 1.839736
v 1.295142 -0.620711 1.822682
v 1.249256 -0.6 1.888033
v 1.270143 -0.6 1.879381
v 1.288079 -0.6 1.865618
v 1.301841 -0.6 1.847682
v 1.310493 -0.6 1.826795
v 1.275138 -0.575882 1.888033
v 1.295142 -0.575882 1.872682
v 1.310493 -0.575882 1.852677
v 1.320143 -0.575882 1.829381
v 1.252723 -0.55 1.900973
v 1.276841 -0.55 1.890983
v 1.297552 -0.55 1.875092
v 1.313444 -0.55 1.854381
v 1.323434 -0.55 1.830263
v 1.320143 0.575882 1.829381
v 1.270143 0.636603 1.829381
v 1.249256 0.646593 1.817322
v 1.245143 0.646593 1.822682
v 1.23354 0.646593 1.829381
v 1.251841 0.646593 1.81108
v 1.275138 0.636603 1.817322
v 1.295142 0.620711 1.822682
v 1.262197 0.636603 1.839736
v 1.239782 0.646593 1.826795
v 1.251841 0.636603 1.847682
v 1.239782 0.636603 1.852677
v 1.288079 0.620711 1.839736
v 1.276841 0.620711 1.854381
v 1.262197 0.620711 1.865618
v 1.245143 0.620711 1.872682
v 1.310493 0.6 1.826795
v 1.301841 0.6 1.847682
v 1.288079 0.6 1.865618
v 1.270143 0.6 1.879381
v 1.249256 0.6 1.888033
v 1.310493 0.575882 1.852677
v 1.295142 0.575882 1.872682
v 1.275138 0.575882 1.888033
v 1.251841 0.575882 1.897682
v 1.323434 0.55 1.830263
v 1.313444 0.55 1.854381
v 1.297552 0.55 1.875092
v 1.276841 0.55 1.890983
v 1.252723 0.55 1.900973
v -0.65 1.65 -0.535
v 0.65 1.65 -0.535
v -0.65 -1.65 -0.535
newmtl 2
Ka 0.2235294117647059 0.2235294117647059 0.2235294117647059
Kd 0.2235294117647059 0.2235294117647059 0.2235294117647059
Ks 0.11372549019607843 0.11372549019607843 0.11372549019607843
d 0.0
endmtl
v 0.65 -1.65 -0.535
v -0.65 -1.65 -0.585
v -0.65 1.65 -0.585
v 0.65 1.65 -0.585
v 0.65 -1.65 -0.585
v 2.44 -0.6 0.075
v 2.44 0.6 0.075
v 2.44 -0.6 0.585
v 2.44 0.6 0.585
v 3.025 0.6 0.075
v 3.025 0.6 0.585
v 3.025 -0.6 0.585
v 3.025 -0.6 0.075
v -2.15 0.75 0.075
v -2.15 -0.75 0.075
v 2.15 0.75 0.075
v 2.15 -0.75 0.075
v -2.15 0.75 0.585
v 2.15 0.75 0.585
v -2.15 -0.75 0.585
v 2.15 -0.75 0.585
v -2.44 0.6 0.075
v -2.44 -0.6 0.075
v -2.44 0.6 0.585
v -2.44 -0.6 0.585
v -3.025 0.6 0.075
v -3.025 -0.6 0.075
v -3.025 0.6 0.585
v -3.025 -0.6 0.585
v -3.025 1.65 -0.585
v -3.025 1.65 0.585
v 3.025 1.65 0.585
v 3.025 1.65 -0.585
v 3.025 -1.65 -0.585
v 3.025 -1.65 0.585
v -3.025 -1.65 0.585
v -3.025 -1.65 -0.585
v -2.697678 -0.67 0.633234
v -2.697678 -0.67 0.733234
v -2.701767 -0.638942 0.633234
newmtl 3
Ka 0.8509803921568627 0.8509803921568627 0.8509803921568627
Kd 0.8509803921568627 0.8509803921568627 0.8509803921568627
Ks 0.4235294117647059 0.4235294117647059 0.4235294117647059
d 0.0
endmtl
v -2.701767 -0.638942 0.733234
v -2.713755 -0.61 0.633234
v -2.713755 -0.61 0.733234
v -2.732826 -0.585147 0.633234
v -2.732826 -0.585147 0.733234
v -2.757678 -0.566077 0.633234
v -2.757678 -0.566077 0.733234
v -2.78662 -0.554089 0.633234
v -2.78662 -0.554089 0.733234
v -2.817678 -0.55 0.633234
v -2.817678 -0.55 0.733234
v -2.817678 -0.95 0.633234
v -2.817678 -0.95 0.733234
v -2.78662 -0.945911 0.633234
v -2.78662 -0.945911 0.733234
v -2.757678 -0.933923 0.633234
v -2.757678 -0.933923 0.733234
v -2.732826 -0.914853 0.633234
v -2.732826 -0.914853 0.733234
v -2.713755 -0.89 0.633234
v -2.713755 -0.89 0.733234
v -2.701767 -0.861058 0.633234
v -2.701767 -0.861058 0.733234
v -2.697678 -0.83 0.633234
v -2.697678 -0.83 0.733234
v -2.697678 0.83 0.633234
v -2.697678 0.83 0.733234
v -2.701767 0.861058 0.633234
v -2.701767 0.861058 0.733234
v -2.713755 0.89 0.633234
v -2.713755 0.89 0.733234
v -2.732826 0.914853 0.633234
v -2.732826 0.914853 0.733234
v -2.757678 0.933923 0.633234
v -2.757678 0.933923 0.733234
v -2.78662 0.945911 0.633234
v -2.78662 0.945911 0.733234
v -2.817678 0.95 0.633234
v -2.817678 0.95 0.733234
v -2.817678 0.55 0.633234
v -2.817678 0.55 0.733234
v -2.78662 0.554089 0.633234
v -2.78662 0.554089 0.733234
v -2.757678 0.566077 0.633234
v -2.757678 0.566077 0.733234
v -2.732826 0.585147 0.633234
v -2.732826 0.585147 0.733234
v -2.713755 0.61 0.633234
v -2.713755 0.61 0.733234
v -2.701767 0.638942 0.633234
v -2.701767 0.638942 0.733234
v -2.697678 0.67 0.633234
v -2.697678 0.67 0.733234
v 2.702825 0.88168 0.633234
v 2.702825 0.88168 0.608741
v 2.707203 0.89 0.608741
v 2.691126 0.83 0.733234
v 2.691126 0.83 0.633234
v 2.695215 0.861058 0.733234
v 2.695215 0.861058 0.633234
v 2.707203 0.89 0.733234
v 2.811126 0.95 0.608741
v 2.811126 0.95 0.733234
v 2.780068 0.945911 0.608741
v 2.780068 0.945911 0.733234
v 2.751126 0.933923 0.608741
v 2.751126 0.933923 0.733234
v 2.726273 0.914853 0.608741
v 2.726273 0.914853 0.733234
v 2.691126 0.67 0.633234
v 2.691126 0.67 0.733234
v 2.695215 0.638942 0.633234
v 2.695215 0.638942 0.733234
v 2.702825 0.61832 0.633234
v 2.707203 0.61 0.733234
v 2.702825 0.61832 0.608741
v 2.707203 0.61 0.608741
v 2.726273 0.585147 0.608741
v 2.726273 0.585147 0.733234
v 2.751126 0.566077 0.608741
v 2.751126 0.566077 0.733234
v 2.780068 0.554089 0.608741
v 2.780068 0.554089 0.733234
v 2.811126 0.55 0.608741
v 2.811126 0.55 0.733234
v 2.702825 -0.61832 0.633234
v 2.702825 -0.61832 0.608741
v 2.707203 -0.61 0.608741
v 2.691126 -0.67 0.733234
v 2.691126 -0.67 0.633234
v 2.695215 -0.638942 0.733234
v 2.695215 -0.638942 0.633234
v 2.707203 -0.61 0.733234
v 2.811126 -0.55 0.608741
v 2.811126 -0.55 0.733234
v 2.780068 -0.554089 0.608741
v 2.780068 -0.554089 0.733234
v 2.751126 -0.566077 0.608741
v 2.751126 -0.566077 0.733234
v 2.726273 -0.585147 0.608741
v 2.726273 -0.585147 0.733234
v 2.691126 -0.83 0.633234
v 2.691126 -0.83 0.733234
v 2.695215 -0.861058 0.633234
v 2.695215 -0.861058 0.733234
v 2.702825 -0.88168 0.633234
v 2.707203 -0.89 0.733234
v 2.702825 -0.88168 0.608741
v 2.707203 -0.89 0.608741
v 2.726273 -0.914853 0.608741
v 2.726273 -0.914853 0.733234
v 2.751126 -0.933923 0.608741
v 2.751126 -0.933923 0.733234
v 2.780068 -0.945911 0.608741
v 2.780068 -0.945911 0.733234
v 2.811126 -0.95 0.608741
v 2.811126 -0.95 0.733234
v -2.997678 0.55 0.633234
v -2.997678 -0.55 0.633234
v -2.994271 -0.55 0.659116
v -2.994271 0.55 0.659116
v -2.984281 -0.55 0.683234
v -2.984281 0.55 0.683234
v -2.968389 -0.55 0.703945
v -2.968389 0.55 0.703945
v -2.947678 -0.55 0.719837
v -2.947678 0.55 0.719837
v -2.92356 -0.55 0.729827
v -2.92356 0.55 0.729827
v -2.897678 -0.55 0.733234
v -2.897678 0.55 0.733234
v 2.891126 0.55 0.733234
v 2.891126 -0.55 0.733234
v 2.917008 -0.55 0.729827
v 2.917008 0.55 0.729827
v 2.941126 -0.55 0.719837
v 2.941126 0.55 0.719837
v 2.961837 -0.55 0.703945
v 2.961837 0.55 0.703945
v 2.977729 -0.55 0.683234
v 2.977729 0.55 0.683234
v 2.987719 -0.55 0.659116
v 2.987719 0.55 0.659116
v 2.991126 -0.55 0.633234
v 2.991126 0.55 0.633234
v 2.901126 0.95 0.608741
v 2.901126 0.95 0.733234
v 2.901126 -0.95 0.733234
v 2.901126 -0.95 0.608741
v -2.907678 -0.95 0.733234
v -2.843852 -0.95 0.633234
v -2.857357 -0.95 0.628733
v -2.881059 -0.95 0.608741
v -2.907678 -0.95 0.608741
v -2.878949 -0.95 0.612258
v -2.870149 -0.95 0.621057
v -2.843852 0.95 0.633234
v -2.907678 0.95 0.733234
v -2.857357 0.95 0.628733
v -2.870149 0.95 0.621057
v -2.907678 0.95 0.608741
v -2.881059 0.95 0.608741
v -2.878949 0.95 0.612258
v -2.897678 -0.55 0.15874
v -2.997678 -0.55 0.15874
v -2.897678 0.55 0.15874
v -2.997678 0.55 0.15874
v -2.897678 -0.55 0.608741
v -2.881059 -0.55 0.608741
v -2.878949 -0.55 0.612258
v -2.870149 -0.55 0.621057
v -2.843852 -0.55 0.633234
v -2.857357 -0.55 0.628733
v -2.897678 0.55 0.608741
v -2.878949 0.55 0.612258
v -2.881059 0.55 0.608741
v -2.843852 0.55 0.633234
v -2.857357 0.55 0.628733
v -2.870149 0.55 0.621057
v 2.991126 -0.55 0.15874
v 2.891126 -0.55 0.15874
v 2.991126 0.55 0.15874
v 2.891126 0.55 0.15874
v 2.891126 0.55 0.608741
v 2.891126 -0.55 0.608741
v 2.703126 1.85 0.633234
v -2.709678 1.85 0.633234
v -2.709678 1.846593 0.659116
v 2.703126 1.846593 0.659116
v -2.709678 1.836603 0.683234
v 2.703126 1.836603 0.683234
v -2.709678 1.820711 0.703945
v 2.703126 1.820711 0.703945
v -2.709678 1.8 0.719837
v 2.703126 1.8 0.719837
v -2.709678 1.775882 0.729827
v 2.703126 1.775882 0.729827
v -2.709678 1.75 0.733234
v 2.703126 1.75 0.733234
v 2.703126 -1.75 0.733234
v -2.709678 -1.75 0.733234
v -2.709678 -1.775882 0.729827
v 2.703126 -1.775882 0.729827
v -2.709678 -1.8 0.719837
v 2.703126 -1.8 0.719837
v -2.709678 -1.820711 0.703945
v 2.703126 -1.820711 0.703945
v -2.709678 -1.836603 0.683234
v 2.703126 -1.836603 0.683234
v -2.709678 -1.846593 0.659116
v 2.703126 -1.846593 0.659116
v -2.709678 -1.85 0.633234
v 2.703126 -1.85 0.633234
v 2.703126 1.7 0.608741
v 2.703126 1.7 0.733234
v 2.708237 1.661177 0.608741
v 2.708237 1.661177 0.733234
v 2.723222 1.625 0.608741
v 2.723222 1.625 0.733234
v 2.74706 1.593934 0.608741
v 2.74706 1.593934 0.733234
v 2.778126 1.570096 0.608741
v 2.778126 1.570096 0.733234
v 2.814303 1.555111 0.608741
v 2.814303 1.555111 0.733234
v 2.853126 1.55 0.608741
v 2.853126 1.55 0.733234
v -2.857357 1.550018 0.628733
v -2.859678 1.55 0.62734
v -2.859678 1.55 0.733234
v -2.850595 1.550275 0.630986
v -2.709678 1.7 0.733234
v -2.709678 1.7 0.633234
v -2.714789 1.661177 0.733234
v -2.714789 1.661177 0.633234
v -2.729774 1.625 0.733234
v -2.729774 1.625 0.633234
v -2.753612 1.593934 0.733234
v -2.753612 1.593934 0.633234
v -2.784678 1.570096 0.733234
v -2.784678 1.570096 0.633234
v -2.820855 1.555111 0.733234
v -2.820855 1.555111 0.633234
v -2.843852 1.550837 0.633234
v -2.859678 -1.55 0.733234
v -2.859678 -1.55 0.62734
v -2.857357 -1.550018 0.628733
v -2.709678 -1.7 0.633234
v -2.709678 -1.7 0.733234
v -2.714789 -1.661177 0.633234
v -2.714789 -1.661177 0.733234
v -2.729774 -1.625 0.633234
v -2.729774 -1.625 0.733234
v -2.753612 -1.593934 0.633234
v -2.753612 -1.593934 0.733234
v -2.784678 -1.570096 0.633234
v -2.784678 -1.570096 0.733234
v -2.820855 -1.555111 0.633234
v -2.820855 -1.555111 0.733234
v -2.843852 -1.550837 0.633234
v -2.850595 -1.550275 0.630986
v 2.853126 -1.55 0.608741
v 2.853126 -1.55 0.733234
v 2.814303 -1.555111 0.608741
v 2.814303 -1.555111 0.733234
v 2.778126 -1.570096 0.608741
v 2.778126 -1.570096 0.733234
v 2.74706 -1.593934 0.608741
v 2.74706 -1.593934 0.733234
v 2.723222 -1.625 0.608741
v 2.723222 -1.625 0.733234
v 2.708237 -1.661177 0.608741
v 2.708237 -1.661177 0.733234
v 2.703126 -1.7 0.608741
v 2.703126 -1.7 0.733234
v 2.901126 -1.55 0.608741
v 2.901126 -1.55 0.733234
v 2.702976 -1.85 0.608741
v 2.702976 1.85 0.608741
v 2.901126 1.55 0.733234
v 2.901126 1.55 0.608741
v -2.907678 1.55 0.733234
v -2.881059 1.55 0.608741
v -2.907678 1.55 0.608741
v -2.878949 1.55 0.612258
v -2.870149 1.55 0.621057
v -2.709528 1.85 0.608741
v -2.709528 1.75 0.608741
v -2.709678 1.75 0.633234
v -2.907678 -1.55 0.733234
v -2.907678 -1.55 0.608741
v -2.881059 -1.55 0.608741
v -2.870149 -1.55 0.621057
v -2.878949 -1.55 0.612258
v -2.709678 -1.75 0.633234
v -2.709528 -1.75 0.608741
v -2.709528 -1.85 0.608741
v 1.3 -0.725 1.105
v 1.3 -0.725 1.205
v 1.325882 -0.721593 1.105
v 1.325882 -0.721593 1.205
v 1.35 -0.711603 1.105
v 1.35 -0.711603 1.205
v 1.370711 -0.695711 1.105
v 1.370711 -0.695711 1.205
v 1.386603 -0.675 1.105
v 1.386603 -0.675 1.205
v 1.396593 -0.650882 1.105
v 1.396593 -0.650882 1.205
v 1.4 -0.625 1.105
v 1.4 -0.625 1.205
v 1.4 0.625 1.105
v 1.4 0.625 1.205
v 1.396593 0.650882 1.105
v 1.396593 0.650882 1.205
v 1.386603 0.675 1.105
v 1.386603 0.675 1.205
v 1.370711 0.695711 1.105
v 1.370711 0.695711 1.205
v 1.35 0.711603 1.105
v 1.35 0.711603 1.205
v 1.325882 0.721593 1.105
v 1.325882 0.721593 1.205
v 1.3 0.725 1.105
v 1.3 0.725 1.205
v -1.3 0.725 1.105
v -1.3 0.725 1.205
v -1.325882 0.721593 1.105
v -1.325882 0.721593 1.205
v -1.35 0.711603 1.105
v -1.35 0.711603 1.205
v -1.370711 0.695711 1.105
v -1.370711 0.695711 1.205
v -1.386603 0.675 1.105
v -1.386603 0.675 1.205
v -1.396593 0.650882 1.105
v -1.396593 0.650882 1.205
v -1.4 0.625 1.105
v -1.4 0.625 1.205
v -1.4 -0.625 1.105
v -1.4 -0.625 1.205
v -1.396593 -0.650882 1.105
v -1.396593 -0.650882 1.205
v -1.386603 -0.675 1.105
v -1.386603 -0.675 1.205
v -1.370711 -0.695711 1.105
v -1.370711 -0.695711 1.205
v -1.35 -0.711603 1.105
v -1.35 -0.711603 1.205
v -1.325882 -0.721593 1.105
v -1.325882 -0.721593 1.205
v -1.3 -0.725 1.105
v -1.3 -0.725 1.205
v -2.240214 1.422017 0.633234
v 2.215847 1.422017 0.633234
v -2.240057 1.417679 0.633313
v 2.213983 1.400952 0.635098
v -2.237686 1.404648 0.634498
v 2.212718 1.396339 0.636363
v -2.234198 1.396293 0.636242
v 2.208199 1.379864 0.640882
v -2.231754 1.390438 0.637464
v 2.160296 1.319257 0.691264
v 2.157223 1.316063 0.696898
v -2.157183 1.316063 0.696898
v -2.160014 1.319098 0.691528
v -2.16276 1.322405 0.686321
v 2.173228 1.331101 0.675853
v -2.1734 1.330907 0.675681
v 2.181855 1.338336 0.667225
v -2.178244 1.334778 0.670837
v 2.190933 1.349856 0.658148
v -2.191425 1.34947 0.657656
v 2.197324 1.357968 0.651757
v -2.19148 1.349531 0.657601
v 2.204263 1.371939 0.644818
v -2.217709 1.371788 0.644487
v -2.219715 1.373491 0.643484
v 2.16327 1.322749 0.685811
v 2.157223 -1.316063 0.696898
v 2.160296 -1.319257 0.691264
v -2.1734 -1.330907 0.675681
v -2.16276 -1.322405 0.686321
v -2.160014 -1.319098 0.691528
v -2.157183 -1.316063 0.696898
v 2.190981 -1.349773 0.6581
v -2.191425 -1.34947 0.657656
v -2.178244 -1.334778 0.670837
v 2.16327 -1.322749 0.685811
v 2.172928 -1.331411 0.676153
v 2.187219 -1.344228 0.661862
v -2.20345 -1.358191 0.651616
v -2.19148 -1.349531 0.657601
v 2.204374 -1.371852 0.644707
v 2.201891 -1.365851 0.64719
v 2.210575 -1.38684 0.638506
v -2.224015 -1.378678 0.641334
v -2.21721 -1.371899 0.644736
v 2.215847 -1.422017 0.633234
v -2.240214 -1.422017 0.633234
v 2.214932 -1.407227 0.634149
v -2.238708 -1.408599 0.633987
v 2.212606 -1.396343 0.636475
v -2.234493 -1.39626 0.636095
v -2.234093 -1.395089 0.636295
v 1.896768 1.060606 1.102549
v -1.882608 1.043247 1.104909
v -1.884204 1.047426 1.104643
v -1.882063 1.038986 1.105
v 1.888541 1.053641 1.10392
v 1.884681 1.048317 1.104564
v 1.882775 1.043854 1.104881
v 1.882086 1.039864 1.104996
v 1.882063 1.038986 1.105
v -1.888116 1.053154 1.103991
v -1.896395 1.060618 1.102611
v 1.8995 1.062919 1.102094
v -1.896976 1.061142 1.102515
v 1.926836 1.07689 1.097538
v 1.92928 1.081209 1.095582
v -1.921422 1.074608 1.09844
v -1.926836 1.07689 1.097538
v -1.92928 1.081209 1.095582
v 1.94122 1.099287 1.084773
v 1.941673 1.09982 1.084321
v -1.930588 1.083521 1.094536
v 1.930588 1.083521 1.094536
v 1.934934 1.089915 1.091059
v -1.934934 1.089915 1.091059
v -1.941775 1.099753 1.084219
v 1.948522 1.107891 1.077471
v -1.94329 1.101932 1.082703
v 1.953468 1.11549 1.069228
v -1.953311 1.1126 1.072683
v -1.956245 1.115185 1.069024
v -1.970061 1.127357 1.051803
v 1.963559 1.12728 1.051947
v 1.962162 1.12587 1.054508
v 1.960788 1.124386 1.057027
v 1.954329 1.116812 1.067793
v 1.94122 -1.099287 1.084773
v 1.94167 -1.099818 1.084323
v -1.941773 -1.09975 1.084221
v 1.954329 -1.116812 1.067793
v 1.960788 -1.124386 1.057027
v -1.970061 -1.127338 1.051803
v 1.962162 -1.12587 1.054508
v 1.963559 -1.12728 1.051947
v -1.94329 -1.101932 1.082703
v 1.953466 -1.115487 1.069231
v -1.956243 -1.11518 1.069027
v -1.953311 -1.1126 1.072683
v 1.948522 -1.107891 1.077471
v -1.930588 -1.083521 1.094536
v -1.929279 -1.081207 1.095583
v 1.929279 -1.081207 1.095583
v -1.934934 -1.089915 1.091059
v 1.930588 -1.083521 1.094536
v 1.934934 -1.089915 1.091059
v -1.896767 -1.060605 1.102549
v 1.896394 -1.060617 1.102612
v -1.8995 -1.062919 1.102094
v 1.896976 -1.061142 1.102515
v 1.926836 -1.07689 1.097538
v 1.921422 -1.074608 1.09844
v -1.926836 -1.07689 1.097538
v 1.882608 -1.043247 1.104909
v 1.884204 -1.047426 1.104643
v 1.888116 -1.053154 1.103991
v 1.882063 -1.038986 1.105
v -1.888541 -1.053641 1.10392
v -1.884681 -1.048317 1.104564
v -1.882775 -1.043854 1.104881
v -1.882086 -1.039864 1.104996
v -1.882063 -1.038986 1.105
v 0.420049 1.75 -0.448089
v 0.441374 1.75 -0.420675
v -0.421685 1.75 -0.448359
v -0.717477 1.75 -0.406866
v -0.691268 1.75 -0.387209
v -2.709377 1.75 0.143527
v -2.72305 1.75 0.104924
v -2.739052 1.75 0.07942
v -0.855075 1.75 -0.524808
v -0.625745 1.75 -0.374105
v 2.957312 1.75 -0.048994
v 2.939527 1.75 -0.024376
v 2.910386 1.75 2.8E-4
v 2.807662 1.75 0.032138
v 2.760828 1.75 0.058423
v 0.855075 1.75 -0.524808
v -0.776448 1.75 -0.472389
v -0.756791 1.75 -0.452733
v -0.737134 1.75 -0.426523
v -2.739096 1.75 0.079351
v -2.758709 1.75 0.060338
v -2.827318 1.75 -0.524808
v -2.761523 1.75 0.058615
v -2.786452 1.75 0.043347
v -2.797386 1.75 0.038932
v -2.814214 1.75 0.032138
v -2.840423 1.75 0.025586
v 0.469087 1.75 -0.399
v 0.501474 1.75 -0.384364
v 2.968004 1.75 -0.075034
v 2.873185 1.75 0.019033
v 2.709377 1.75 0.143527
v 2.702825 1.75 0.176289
v 0.737134 1.75 -0.426523
v -0.796105 1.75 -0.498599
v -0.828866 1.75 -0.511703
v -2.721449 1.75 0.107475
v -0.55367 1.75 -0.374105
v -0.520908 1.75 -0.380657
v -0.493568 1.75 -0.387569
v -0.492057 1.75 -0.387951
v -0.466699 1.75 -0.401416
v -0.465347 1.75 -0.402133
v -0.439461 1.75 -0.424458
v -0.438582 1.75 -0.425217
v 0.514356 1.75 -0.380657
v 0.547117 1.75 -0.374105
v 2.702825 1.75 0.633234
v 0.625745 1.75 -0.374105
v 0.658506 1.75 -0.380657
v 2.940288 1.75 -0.475017
v 2.960146 1.75 -0.44713
v 2.973663 1.75 -0.411622
v 2.978022 1.75 -0.374105
v 2.978022 1.75 -0.125117
v 2.971469 1.75 -0.092356
v 0.684716 1.75 -0.387209
v 2.702825 1.75 0.608741
v 0.402967 1.75 -0.485494
v -0.421664 1.75 -0.44841
v -0.41247 1.75 -0.470738
v -0.402967 1.75 -0.518256
v 0.396414 1.75 -0.518256
v -0.409519 1.75 -0.485494
v -0.41233 1.75 -0.471441
v 2.827318 1.75 -0.524808
v 2.86008 1.75 -0.518256
v 2.882324 1.75 -0.512503
v 2.913935 1.75 -0.497239
v 2.711842 1.75 0.129193
v 0.756791 1.75 -0.452733
v 0.776448 1.75 -0.472389
v -2.971469 1.75 -0.092356
v -2.873185 1.75 0.019033
v -2.896708 1.75 0.008984
v -2.924461 1.75 -0.011466
v -2.948239 1.75 -0.038484
v -2.965212 1.75 -0.069376
v -2.971469 1.75 -0.406866
v -2.86008 1.75 -0.518256
v -2.962628 1.75 -0.435007
v 2.735973 1.75 0.081587
v 2.720877 1.75 0.104346
v 0.822314 1.75 -0.511703
v 0.796105 1.75 -0.498599
v -2.978022 1.75 -0.125117
v -2.978022 1.75 -0.374105
v -2.946152 1.75 -0.464383
v -2.923853 1.75 -0.488064
v -2.896619 1.75 -0.505605
v 2.702825 -1.75 0.608741
v 2.702825 -1.75 0.633234
v -0.625745 -1.75 -0.374105
v -0.691268 -1.75 -0.387209
v 2.86008 -1.75 -0.518256
v 2.827318 -1.75 -0.524808
v 2.807662 -1.75 0.032138
v 0.469087 -1.75 -0.399
v 0.441374 -1.75 -0.420675
v 0.501474 -1.75 -0.384364
v -2.761367 -1.75 0.05836
v -0.855075 -1.75 -0.524808
v -2.797204 -1.75 0.038482
v -2.827318 -1.75 -0.524808
v -2.814214 -1.75 0.032138
v 2.760828 -1.75 0.058423
v 0.855075 -1.75 -0.524808
v 2.735973 -1.75 0.081587
v 2.910239 -1.75 1.0E-4
v 2.908491 -1.75 0.001519
v 2.873185 -1.75 0.019033
v 0.684716 -1.75 -0.387209
v 0.658506 -1.75 -0.380657
v -0.717477 -1.75 -0.406866
v -2.709377 -1.75 0.143527
v 2.962129 -1.75 -0.443513
v 2.959891 -1.75 -0.446964
v 2.945967 -1.75 -0.468432
v -0.46666 -1.75 -0.401343
v -0.439456 -1.75 -0.424452
v 0.420049 -1.75 -0.448089
v -0.421971 -1.75 -0.448537
v 0.402967 -1.75 -0.485494
v -0.412389 -1.75 -0.471453
v -0.737134 -1.75 -0.426523
v -0.756791 -1.75 -0.452733
v -0.776448 -1.75 -0.472389
v 0.737134 -1.75 -0.426523
v 2.702825 -1.75 0.176289
v 2.936662 -1.75 -0.021349
v 2.939177 -1.75 -0.024643
v 2.956634 -1.75 -0.047503
v 2.957273 -1.75 -0.049011
v 2.967546 -1.75 -0.073208
v 2.967924 -1.75 -0.07505
v 0.625745 -1.75 -0.374105
v 0.547117 -1.75 -0.374105
v 0.514356 -1.75 -0.380657
v -2.73899 -1.75 0.079381
v -2.72266 -1.75 0.104679
v -0.828866 -1.75 -0.511703
v -0.796105 -1.75 -0.498599
v 2.971469 -1.75 -0.092356
v 2.978022 -1.75 -0.125117
v 2.978022 -1.75 -0.374105
v 2.974019 -1.75 -0.410714
v 2.973687 -1.75 -0.411631
v 2.939757 -1.75 -0.47447
v 2.921298 -1.75 -0.492416
v 2.913661 -1.75 -0.496758
v 2.892389 -1.75 -0.508854
v 2.882131 -1.75 -0.511839
v -2.89488 -1.75 -0.506426
v -2.896492 -1.75 -0.505404
v -2.840423 -1.75 0.025586
v -2.923517 -1.75 -0.488274
v 2.709377 -1.75 0.143527
v 2.711842 -1.75 0.129193
v 0.756791 -1.75 -0.452733
v 0.776448 -1.75 -0.472389
v 0.396414 -1.75 -0.518256
v -0.402967 -1.75 -0.518256
v -0.409519 -1.75 -0.485494
v -0.493565 -1.75 -0.38756
v -0.520908 -1.75 -0.380657
v -0.55367 -1.75 -0.374105
v -2.86008 -1.75 -0.518256
v -2.923782 -1.75 -0.487996
v -2.946115 -1.75 -0.464609
v -2.946221 -1.75 -0.464422
v 0.796105 -1.75 -0.498599
v 0.822314 -1.75 -0.511703
v 2.720877 -1.75 0.104346
v -2.926312 -1.75 -0.013032
v -2.924391 -1.75 -0.011557
v -2.962662 -1.75 -0.435018
v -2.898995 -1.75 0.007944
v -2.896687 -1.75 0.008935
v -2.962531 -1.75 -0.435435
v -2.873185 -1.75 0.019033
v -2.964818 -1.75 -0.067933
v -2.951344 -1.75 -0.042849
v -2.947911 -1.75 -0.03876
v -2.978022 -1.75 -0.374105
v -2.978022 -1.75 -0.125117
v -2.971469 -1.75 -0.406866
v -2.971469 -1.75 -0.092356
v -2.96521 -1.75 -0.069376
v -2.246658 1.404358 0.743845
v 2.246658 1.404358 0.743845
v -2.248776 1.405659 0.741727
v 2.250135 1.406914 0.740367
v -2.255442 1.410024 0.737424
v -2.250716 1.407213 0.739787
v -2.250212 1.40681 0.740291
v 2.251319 1.407784 0.739184
v 2.253122 1.409987 0.73738
v -2.257611 1.411314 0.736339
v 2.253994 1.411052 0.736508
v -2.259951 1.413672 0.735169
v 2.255343 1.41367 0.73516
v -2.261304 1.415035 0.734493
v 2.255906 1.414763 0.734596
v 2.257268 1.422017 0.733234
v -2.26382 1.422017 0.733234
v 2.256919 1.418295 0.733584
v -2.263595 1.419896 0.733347
v 2.256758 1.417735 0.733744
v -2.262875 1.417724 0.733707
v -2.262838 1.417612 0.733725
v -2.26382 -1.422017 0.733234
v 2.257268 -1.422017 0.733234
v 2.257243 -1.421019 0.733259
v -2.263547 -1.419682 0.733371
v 2.256765 -1.417728 0.733737
v -2.262856 -1.417725 0.733716
v 2.256701 -1.417291 0.733801
v 2.255513 -1.413823 0.73499
v -2.259987 -1.413663 0.735151
v -2.261282 -1.415006 0.734504
v -2.262747 -1.417414 0.733771
v 2.253989 -1.411044 0.736513
v 2.253113 -1.409996 0.73739
v -2.255417 -1.410029 0.737436
v 2.25541 -1.413636 0.735093
v -2.258118 -1.411726 0.736085
v 2.250162 -1.406879 0.74034
v 2.246658 -1.404358 0.743845
v -2.246658 -1.404358 0.743845
v -2.248776 -1.405659 0.741727
v -2.250212 -1.40681 0.740291
v 2.251025 -1.4075 0.739477
v -2.250716 -1.407213 0.739787
v -2.251568 -1.407612 0.739361
v 1.919882 1.083091 1.200076
v 1.968967 1.11019 1.191895
v 1.976173 1.12268 1.18613
v -1.976173 1.12268 1.18613
v -1.968967 1.11019 1.191895
v -1.965557 1.10868 1.192464
v -2.003186 1.159843 1.164229
v -2.001728 1.158065 1.165686
v 1.983297 1.135026 1.180432
v -1.983297 1.135026 1.180432
v -2.031934 1.191119 1.134481
v -2.027938 1.187026 1.139477
v 2.030935 1.191119 1.134481
v -2.014124 1.173187 1.15329
v 2.027938 1.187026 1.139477
v 2.001728 1.158065 1.165686
v 2.003186 1.159843 1.164229
v 2.014124 1.173187 1.15329
v -2.056196 1.213426 1.102829
v -2.054147 1.211189 1.106715
v -2.040549 1.199943 1.123713
v -2.058271 1.215575 1.098894
v 2.051861 1.215575 1.098894
v 2.049714 1.213426 1.102829
v 2.047594 1.211189 1.106715
v 2.037396 1.199943 1.123713
v -1.894523 1.055672 1.204303
v -1.891384 1.047328 1.204826
v 1.918594 1.081924 1.200291
v -1.902226 1.067066 1.203019
v -1.91898 1.08242 1.200227
v -1.918444 1.081929 1.200316
v -1.890339 1.038986 1.205
v 1.890339 1.038986 1.205
v 1.890355 1.039998 1.204997
v 1.89154 1.047929 1.2048
v 1.895068 1.056723 1.204212
v 1.902359 1.067222 1.202997
v -1.919882 -1.083091 1.200076
v -1.968967 -1.11019 1.191895
v -1.976173 -1.12268 1.18613
v 2.049714 -1.213426 1.102829
v 2.047594 -1.211189 1.106715
v 2.037396 -1.199943 1.123713
v -2.040549 -1.199943 1.123713
v -2.054147 -1.211189 1.106715
v 2.051861 -1.215575 1.098894
v -2.056196 -1.213426 1.102829
v -2.058271 -1.215575 1.098894
v 2.003186 -1.159843 1.164229
v -2.003186 -1.159843 1.164229
v 2.014124 -1.173187 1.15329
v -2.014124 -1.173187 1.15329
v 2.027938 -1.187026 1.139477
v 2.030935 -1.191119 1.134481
v -2.031934 -1.191119 1.134481
v -2.027938 -1.187026 1.139477
v 2.001728 -1.158065 1.165686
v 1.983297 -1.135026 1.180432
v -2.001728 -1.158065 1.165686
v -1.983297 -1.135026 1.180432
v 1.976173 -1.12268 1.18613
v 1.968967 -1.11019 1.191895
v 1.965557 -1.10868 1.192464
v 1.894523 -1.055672 1.204303
v 1.891384 -1.047328 1.204826
v -1.918594 -1.081924 1.200291
v 1.902226 -1.067066 1.203019
v 1.91898 -1.08242 1.200227
v 1.918444 -1.081929 1.200316
v 1.890339 -1.038986 1.205
v -1.890339 -1.038986 1.205
v -1.890355 -1.039998 1.204997
v -1.89154 -1.047929 1.2048
v -1.895068 -1.056723 1.204212
v -1.902359 -1.067222 1.202997
v -2.244164 -1.403032 0.746339
v 2.244164 -1.403032 0.746339
v -2.244164 1.403032 0.746339
v 2.244164 1.403032 0.746339
v -0.625745 1.85 -0.374105
v -0.691268 1.85 -0.387209
v 2.86008 1.85 -0.518256
v 2.827318 1.85 -0.524808
v 2.807662 1.85 0.032138
v 0.469087 1.85 -0.399
v 0.441374 1.85 -0.420675
v 0.501474 1.85 -0.384364
v -2.761367 1.85 0.05836
v -0.855075 1.85 -0.524808
v -2.797204 1.85 0.038482
v -2.827318 1.85 -0.524808
v -2.814214 1.85 0.032138
v -2.840423 1.85 0.025586
v 2.760828 1.85 0.058423
v 0.855075 1.85 -0.524808
v 2.735973 1.85 0.081587
v 0.684716 1.85 -0.387209
v 0.658506 1.85 -0.380657
v -0.717477 1.85 -0.406866
v -2.709377 1.85 0.143527
v 2.873185 1.85 0.019033
v 2.968004 1.85 -0.075034
v 2.910386 1.85 2.8E-4
v 2.957312 1.85 -0.048994
v 2.939527 1.85 -0.024376
v -0.46666 1.85 -0.401343
v -0.439456 1.85 -0.424452
v 0.420049 1.85 -0.448089
v -0.421971 1.85 -0.448537
v 0.402967 1.85 -0.485494
v -0.412389 1.85 -0.471453
v -2.978022 1.85 -0.125117
v -2.971469 1.85 -0.092356
v -0.737134 1.85 -0.426523
v -0.756791 1.85 -0.452733
v -0.776448 1.85 -0.472389
v 0.737134 1.85 -0.426523
v 2.702825 1.85 0.176289
v 2.971469 1.85 -0.092356
v 2.978022 1.85 -0.125117
v 2.978022 1.85 -0.374105
v 2.882324 1.85 -0.512503
v 2.973663 1.85 -0.411622
v 0.625745 1.85 -0.374105
v 0.547117 1.85 -0.374105
v 0.514356 1.85 -0.380657
v -2.73899 1.85 0.079381
v -2.72266 1.85 0.104679
v -0.828866 1.85 -0.511703
v -0.796105 1.85 -0.498599
v 2.709377 1.85 0.143527
v 2.711842 1.85 0.129193
v 0.756791 1.85 -0.452733
v 0.776448 1.85 -0.472389
v 2.960146 1.85 -0.44713
v 2.940288 1.85 -0.475017
v 2.913935 1.85 -0.497239
v 0.396414 1.85 -0.518256
v -0.402967 1.85 -0.518256
v -0.409519 1.85 -0.485494
v -0.493565 1.85 -0.38756
v -0.520908 1.85 -0.380657
v -0.55367 1.85 -0.374105
v -2.923853 1.85 -0.488064
v -2.946152 1.85 -0.464383
v -2.962628 1.85 -0.435007
v -2.924461 1.85 -0.011466
v -2.948239 1.85 -0.038484
v -2.965212 1.85 -0.069376
v -2.896708 1.85 0.008984
v -2.873185 1.85 0.019033
v 0.796105 1.85 -0.498599
v 0.822314 1.85 -0.511703
v 2.720877 1.85 0.104346
v -2.978022 1.85 -0.374105
v -2.971469 1.85 -0.406866
v -2.86008 1.85 -0.518256
v -2.896619 1.85 -0.505605
v 2.257268 0.479694 0.733234
v 2.257268 0.959388 0.733234
v 2.257268 -0.959388 0.733234
v 2.257268 -0.479694 0.733234
v 2.257268 -0.0 0.733234
v -2.73899 -1.85 0.079381
v -2.761367 -1.85 0.05836
v -0.855075 -1.85 -0.524808
v -0.717477 -1.85 -0.406866
v -0.691268 -1.85 -0.387209
v -2.709377 -1.85 0.143527
v -2.827318 -1.85 -0.524808
v -0.46666 -1.85 -0.401343
v -0.439456 -1.85 -0.424452
v 0.441374 -1.85 -0.420675
v -2.797204 -1.85 0.038482
v -2.814214 -1.85 0.032138
v -2.840423 -1.85 0.025586
v 0.420049 -1.85 -0.448089
v -0.421971 -1.85 -0.448537
v 0.402967 -1.85 -0.485494
v 2.957312 -1.85 -0.048994
v 2.939527 -1.85 -0.024376
v 2.910386 -1.85 2.8E-4
v 2.807662 -1.85 0.032138
v 2.760828 -1.85 0.058423
v 0.855075 -1.85 -0.524808
v -0.776448 -1.85 -0.472389
v -0.756791 -1.85 -0.452733
v -0.737134 -1.85 -0.426523
v -0.625745 -1.85 -0.374105
v 0.469087 -1.85 -0.399
v 0.501474 -1.85 -0.384364
v 2.968004 -1.85 -0.075034
v 2.873185 -1.85 0.019033
v 2.709377 -1.85 0.143527
v 2.702825 -1.85 0.176289
v 0.737134 -1.85 -0.426523
v -0.796105 -1.85 -0.498599
v -0.828866 -1.85 -0.511703
v -2.72266 -1.85 0.104679
v 0.514356 -1.85 -0.380657
v 0.547117 -1.85 -0.374105
v 0.625745 -1.85 -0.374105
v 0.658506 -1.85 -0.380657
v 2.940288 -1.85 -0.475017
v 2.960146 -1.85 -0.44713
v 2.973663 -1.85 -0.411622
v 2.978022 -1.85 -0.374105
v 2.978022 -1.85 -0.125117
v 2.971469 -1.85 -0.092356
v 0.684716 -1.85 -0.387209
v -2.971469 -1.85 -0.092356
v -2.873185 -1.85 0.019033
v -2.896708 -1.85 0.008984
v -2.924461 -1.85 -0.011466
v -2.948239 -1.85 -0.038484
v -2.965212 -1.85 -0.069376
v -2.971469 -1.85 -0.406866
v -2.86008 -1.85 -0.518256
v -2.962628 -1.85 -0.435007
v -0.55367 -1.85 -0.374105
v -0.520908 -1.85 -0.380657
v -0.493565 -1.85 -0.38756
v -0.402967 -1.85 -0.518256
v 0.396414 -1.85 -0.518256
v -0.409519 -1.85 -0.485494
v -0.412389 -1.85 -0.471453
v 2.827318 -1.85 -0.524808
v 2.86008 -1.85 -0.518256
v 2.882324 -1.85 -0.512503
v 2.913935 -1.85 -0.497239
v 2.711842 -1.85 0.129193
v 0.756791 -1.85 -0.452733
v 0.776448 -1.85 -0.472389
v -2.978022 -1.85 -0.125117
v -2.978022 -1.85 -0.374105
v 2.735973 -1.85 0.081587
v 2.720877 -1.85 0.104346
v 0.822314 -1.85 -0.511703
v 0.796105 -1.85 -0.498599
v -2.946152 -1.85 -0.464383
v -2.923853 -1.85 -0.488064
v -2.896619 -1.85 -0.505605
v 2.244164 0.959388 0.746339
v 2.244164 -0.959388 0.746339
v 2.244164 -0.479694 0.746339
v 2.244164 -0.0 0.746339
v 2.244164 0.479694 0.746339
v -2.244164 0.9494 0.746339
v -2.244164 -0.0 0.746339
v -2.244164 0.4747 0.746339
v -2.244164 -0.9494 0.746339
v -2.244164 -0.4747 0.746339
v -2.250716 0.9494 0.739787
v -2.250716 -0.9494 0.739787
v -2.250716 0.4747 0.739787
v -2.250716 -0.0 0.739787
v -2.250716 -0.4747 0.739787
v 1.749465 0.3 -0.291929
v 1.749465 0.3 -0.09536
v 3.184586 0.3 -0.291929
v 3.188635 0.3 -0.09536
v 3.208429 0.3 -0.294813
v 3.246929 0.3 -0.101078
v 3.230896 0.3 -0.303299
v 4.003457 0.3 -0.396766
v 4.003457 0.3 -0.593335
v 3.604545 0.3 -0.396766
v 3.603266 0.3 -0.593335
v 3.580343 0.3 -0.393793
v 3.545843 0.3 -0.587788
v 3.55758 0.3 -0.385051
v 3.303001 0.3 -0.118015
v 3.354714 0.3 -0.145524
v 3.250693 0.3 -0.316897
v 3.400095 0.3 -0.182558
v 3.266676 0.3 -0.334822
v 3.437415 0.3 -0.227704
v 3.356994 0.3 -0.464654
v 3.521618 0.3 -0.352651
v 3.39434 0.3 -0.508625
v 3.537609 0.3 -0.37106
v 3.439412 0.3 -0.544635
v 3.490543 0.3 -0.571352
v 4.003457 -0.3 -0.593335
v 4.003457 -0.3 -0.396766
v 3.603266 -0.3 -0.593335
v 3.604545 -0.3 -0.396766
v 3.545843 -0.3 -0.587788
v 3.580343 -0.3 -0.393793
v 3.490543 -0.3 -0.571352
v 3.55758 -0.3 -0.385051
v 3.439412 -0.3 -0.544635
v 3.537609 -0.3 -0.37106
v 3.39434 -0.3 -0.508625
v 3.356994 -0.3 -0.464654
v 3.521618 -0.3 -0.352651
v 3.266676 -0.3 -0.334822
v 3.437415 -0.3 -0.227704
v 3.250693 -0.3 -0.316897
v 1.749465 -0.3 -0.09536
v 1.749465 -0.3 -0.291929
v 3.188635 -0.3 -0.09536
v 3.184586 -0.3 -0.291929
v 3.246929 -0.3 -0.101078
v 3.208429 -0.3 -0.294813
v 3.303001 -0.3 -0.118015
v 3.230896 -0.3 -0.303299
v 3.354714 -0.3 -0.145524
v 3.400095 -0.3 -0.182558
v 0.8 -0.65 0.585
v -0.8 -0.65 0.585
v 0.8 -0.65 0.635
v -0.8 -0.65 0.635
v -0.8 0.65 0.585
v -0.8 0.65 0.635
v 0.8 0.65 0.585
v 0.8 0.65 0.635
v 2.4 0.9 0.635
v -2.4 0.9 0.635
v -2.4 -0.9 0.635
v 2.4 -0.9 0.635
v -2.4 -0.9 0.585
v -2.4 0.9 0.585
v 2.4 0.9 0.585
v 2.4 -0.9 0.585
v -0.550393 0.3 0.075
v 0.858352 0.3 -0.121569
v -0.845247 0.3 -0.121569
v 1.375983 0.3 -0.147778
v 1.290804 0.3 -0.331243
v 0.904218 0.3 0.075
v 0.550393 0.3 0.075
v 0.550393 0.3 0.127418
v -0.550393 0.3 0.127418
v -4.003457 0.3 -0.593335
v -4.003457 0.3 -0.396766
v -3.59955 0.3 -0.593335
v -3.597993 0.3 -0.396766
v -3.526944 0.3 -0.584416
v -3.573791 0.3 -0.393793
v -3.458655 0.3 -0.55819
v -3.551028 0.3 -0.385051
v -3.398743 0.3 -0.516217
v -3.531057 0.3 -0.37106
v -3.35077 0.3 -0.460991
v -3.515066 0.3 -0.352651
v -3.266567 0.3 -0.336044
v -3.430862 0.3 -0.227704
v -3.250576 0.3 -0.317635
v -3.38289 0.3 -0.172478
v -3.230605 0.3 -0.303644
v -3.322978 0.3 -0.130504
v -3.207842 0.3 -0.294902
v -3.254689 0.3 -0.104279
v -3.18364 0.3 -0.291929
v -3.182083 0.3 -0.09536
v -1.146653 0.3 -0.291929
v -1.199071 0.3 -0.09536
v -0.897665 0.3 0.075
v 0.550393 -0.3 0.075
v -0.845247 -0.3 -0.121569
v 0.858352 -0.3 -0.121569
v 1.290804 -0.3 -0.331243
v 1.375983 -0.3 -0.147778
v 0.904218 -0.3 0.075
v -4.003457 -0.3 -0.396766
v -4.003457 -0.3 -0.593335
v -3.597993 -0.3 -0.396766
v -3.59955 -0.3 -0.593335
v -3.573791 -0.3 -0.393793
v -3.526944 -0.3 -0.584416
v -3.551028 -0.3 -0.385051
v -3.458655 -0.3 -0.55819
v -3.531057 -0.3 -0.37106
v -3.398743 -0.3 -0.516217
v -3.515066 -0.3 -0.352651
v -3.35077 -0.3 -0.460991
v -3.430862 -0.3 -0.227704
v -3.266567 -0.3 -0.336044
v -3.38289 -0.3 -0.172478
v -3.250576 -0.3 -0.317635
v -3.322978 -0.3 -0.130504
v -3.230605 -0.3 -0.303644
v -3.254689 -0.3 -0.104279
v -3.207842 -0.3 -0.294902
v -3.182083 -0.3 -0.09536
v -3.18364 -0.3 -0.291929
v -1.199071 -0.3 -0.09536
v -1.146653 -0.3 -0.291929
v -0.897665 -0.3 0.075
v -0.550393 -0.3 0.075
v -0.550393 -0.3 0.127418
v 0.550393 -0.3 0.127418
v 2.100013 0.725 0.212598
v 2.100013 0.725 0.127418
v 1.805159 0.725 0.271569
v 1.792055 0.725 0.179837
v 1.408369 0.725 0.331511
v 1.477544 0.725 0.232255
v 1.00957 0.725 0.376557
v 1.169586 0.725 0.271569
v 0.608504 0.725 0.406738
v 0.507803 0.725 0.127418
v -1.484097 0.725 0.232255
v -2.100013 0.725 0.127418
v -2.100013 0.725 0.212598
v -0.514356 0.725 0.127418
v -0.197326 0.725 0.422106
v 0.205943 0.725 0.421945
v -1.805159 0.725 0.271569
v -1.403146 0.725 0.332199
v -1.169586 0.725 0.271569
v -1.002712 0.725 0.3772
v -0.600507 0.725 0.407187
v 2.100013 -0.725 0.127418
v 2.100013 -0.725 0.212598
v 1.792055 -0.725 0.179837
v 1.805159 -0.725 0.271569
v 1.477544 -0.725 0.232255
v 1.408369 -0.725 0.331511
v 1.169586 -0.725 0.271569
v 1.00957 -0.725 0.376557
v 0.507803 -0.725 0.127418
v -2.100013 -0.725 0.212598
v -2.100013 -0.725 0.127418
v -1.805159 -0.725 0.271569
v -1.484097 -0.725 0.232255
v 0.608504 -0.725 0.406738
v 0.205943 -0.725 0.421945
v -0.514356 -0.725 0.127418
v -0.197326 -0.725 0.422106
v -0.600507 -0.725 0.407187
v -1.169586 -0.725 0.271569
v -1.002712 -0.725 0.3772
v -1.403146 -0.725 0.332199
usemtl 1
f 1// 2// 3//
f 3// 2// 4//
f 3// 4// 5//
f 6// 7// 8//
f 8// 7// 9//
f 10// 8// 5//
f 5// 8// 9//
f 5// 9// 3//
f 3// 9// 11//
f 3// 11// 12//
f 12// 13// 3//
f 3// 13// 14//
f 3// 14// 15//
f 15// 16// 3//
f 3// 16// 17//
f 3// 17// 18//
f 18// 19// 3//
f 3// 19// 20//
f 3// 20// 21//
f 21// 22// 3//
f 3// 22// 23//
f 3// 23// 24//
f 25// 26// 27//
f 28// 29// 30//
f 30// 29// 31//
f 30// 31// 32//
f 27// 33// 25//
f 25// 33// 30//
f 25// 30// 34//
f 34// 30// 32//
f 35// 30// 36//
f 36// 30// 33//
f 36// 33// 37//
f 37// 33// 38//
f 33// 39// 40//
f 41// 42// 33//
f 33// 42// 43//
f 33// 43// 44//
f 44// 45// 33//
f 33// 45// 46//
f 33// 46// 39//
f 40// 47// 33//
f 33// 47// 48//
f 33// 48// 38//
f 49// 31// 29//
f 6// 8// 50//
f 49// 29// 51//
f 50// 52// 6//
f 6// 52// 53//
f 6// 53// 54//
f 54// 55// 6//
f 6// 55// 56//
f 6// 56// 29//
f 29// 56// 57//
f 29// 57// 58//
f 58// 59// 29//
f 29// 59// 60//
f 29// 60// 51//
f 29// 28// 6//
f 6// 28// 7//
f 28// 30// 7//
f 7// 30// 9//
f 30// 35// 9//
f 9// 35// 11//
f 35// 36// 11//
f 11// 36// 12//
f 40// 17// 16//
f 40// 16// 47//
f 47// 16// 15//
f 47// 15// 48//
f 48// 15// 14//
f 48// 14// 38//
f 38// 14// 13//
f 38// 13// 37//
f 37// 13// 12//
f 37// 12// 36//
f 40// 39// 17//
f 17// 39// 18//
f 42// 23// 22//
f 42// 22// 43//
f 43// 22// 21//
f 43// 21// 44//
f 44// 21// 20//
f 44// 20// 45//
f 45// 20// 19//
f 45// 19// 46//
f 46// 19// 18//
f 46// 18// 39//
f 42// 41// 23//
f 23// 41// 24//
f 41// 33// 24//
f 24// 33// 3//
f 33// 27// 3//
f 3// 27// 1//
f 27// 26// 1//
f 1// 26// 2//
f 26// 25// 61//
f 61// 62// 26//
f 26// 62// 63//
f 26// 63// 64//
f 65// 2// 66//
f 66// 2// 67//
f 65// 68// 2//
f 2// 68// 69//
f 2// 69// 4//
f 64// 70// 26//
f 26// 70// 71//
f 26// 71// 2//
f 2// 71// 72//
f 2// 72// 67//
f 73// 74// 71//
f 71// 74// 72//
f 75// 76// 77//
f 77// 76// 78//
f 57// 56// 79//
f 79// 56// 80//
f 73// 71// 70//
f 73// 70// 81//
f 81// 70// 64//
f 81// 64// 82//
f 82// 64// 63//
f 82// 63// 83//
f 83// 63// 62//
f 83// 62// 84//
f 84// 62// 61//
f 84// 61// 85//
f 85// 61// 25//
f 85// 25// 34//
f 78// 76// 86//
f 78// 86// 87//
f 87// 86// 88//
f 87// 88// 89//
f 89// 88// 90//
f 89// 90// 91//
f 91// 90// 92//
f 91// 92// 93//
f 93// 92// 94//
f 93// 94// 95//
f 95// 94// 74//
f 95// 74// 73//
f 72// 74// 96//
f 72// 96// 67//
f 67// 96// 97//
f 67// 97// 66//
f 66// 97// 98//
f 66// 98// 65//
f 65// 98// 99//
f 65// 99// 68//
f 68// 99// 100//
f 68// 100// 69//
f 69// 100// 5//
f 69// 5// 4//
f 78// 87// 101//
f 102// 103// 104//
f 73// 81// 105//
f 104// 103// 73//
f 106// 73// 103//
f 106// 103// 107//
f 107// 103// 102//
f 107// 102// 108//
f 95// 73// 106//
f 109// 110// 111//
f 111// 110// 105//
f 111// 105// 112//
f 112// 105// 81//
f 112// 81// 82//
f 95// 106// 93//
f 93// 106// 107//
f 93// 107// 91//
f 91// 107// 108//
f 91// 108// 89//
f 113// 109// 114//
f 114// 109// 111//
f 114// 111// 115//
f 115// 111// 112//
f 115// 112// 116//
f 116// 112// 82//
f 116// 82// 83//
f 117// 113// 118//
f 118// 113// 114//
f 118// 114// 119//
f 119// 114// 115//
f 119// 115// 120//
f 120// 115// 116//
f 120// 116// 121//
f 121// 116// 83//
f 121// 83// 84//
f 87// 117// 101//
f 101// 117// 118//
f 101// 118// 122//
f 122// 118// 119//
f 122// 119// 123//
f 123// 119// 120//
f 123// 120// 124//
f 124// 120// 121//
f 124// 121// 125//
f 125// 121// 84//
f 125// 84// 85//
f 78// 101// 126//
f 126// 101// 122//
f 126// 122// 127//
f 127// 122// 123//
f 127// 123// 128//
f 128// 123// 124//
f 128// 124// 129//
f 129// 124// 125//
f 129// 125// 130//
f 130// 125// 85//
f 130// 85// 34//
f 110// 73// 105//
f 87// 89// 117//
f 117// 89// 108//
f 117// 108// 113//
f 113// 108// 102//
f 113// 102// 109//
f 109// 102// 104//
f 109// 104// 110//
f 110// 104// 73//
f 5// 100// 131//
f 132// 133// 134//
f 74// 94// 135//
f 134// 133// 74//
f 136// 74// 133//
f 136// 133// 137//
f 137// 133// 132//
f 137// 132// 138//
f 96// 74// 136//
f 139// 140// 141//
f 141// 140// 135//
f 141// 135// 142//
f 142// 135// 94//
f 142// 94// 92//
f 96// 136// 97//
f 97// 136// 137//
f 97// 137// 98//
f 98// 137// 138//
f 98// 138// 99//
f 143// 139// 144//
f 144// 139// 141//
f 144// 141// 145//
f 145// 141// 142//
f 145// 142// 146//
f 146// 142// 92//
f 146// 92// 90//
f 147// 143// 148//
f 148// 143// 144//
f 148// 144// 149//
f 149// 144// 145//
f 149// 145// 150//
f 150// 145// 146//
f 150// 146// 151//
f 151// 146// 90//
f 151// 90// 88//
f 100// 147// 131//
f 131// 147// 148//
f 131// 148// 152//
f 152// 148// 149//
f 152// 149// 153//
f 153// 149// 150//
f 153// 150// 154//
f 154// 150// 151//
f 154// 151// 155//
f 155// 151// 88//
f 155// 88// 86//
f 5// 131// 156//
f 156// 131// 152//
f 156// 152// 157//
f 157// 152// 153//
f 157// 153// 158//
f 158// 153// 154//
f 158// 154// 159//
f 159// 154// 155//
f 159// 155// 160//
f 160// 155// 86//
f 160// 86// 76//
f 140// 74// 135//
f 100// 99// 147//
f 147// 99// 138//
f 147// 138// 143//
f 143// 138// 132//
f 143// 132// 139//
f 139// 132// 134//
f 139// 134// 140//
f 140// 134// 74//
f 57// 79// 161//
f 57// 161// 58//
f 58// 161// 162//
f 58// 162// 59//
f 59// 162// 163//
f 59// 163// 60//
f 60// 163// 164//
f 60// 164// 51//
f 51// 164// 165//
f 51// 165// 49//
f 49// 165// 32//
f 49// 32// 31//
f 77// 78// 126//
f 77// 126// 166//
f 166// 126// 127//
f 166// 127// 167//
f 167// 127// 128//
f 167// 128// 168//
f 168// 128// 129//
f 168// 129// 169//
f 169// 129// 130//
f 169// 130// 170//
f 170// 130// 34//
f 170// 34// 32//
f 76// 75// 171//
f 76// 171// 160//
f 160// 171// 172//
f 160// 172// 159//
f 159// 172// 173//
f 159// 173// 158//
f 158// 173// 174//
f 158// 174// 157//
f 157// 174// 175//
f 157// 175// 156//
f 156// 175// 10//
f 156// 10// 5//
f 80// 56// 55//
f 80// 55// 176//
f 176// 55// 54//
f 176// 54// 177//
f 177// 54// 53//
f 177// 53// 178//
f 178// 53// 52//
f 178// 52// 179//
f 179// 52// 50//
f 179// 50// 180//
f 180// 50// 8//
f 180// 8// 10//
f 77// 166// 181//
f 182// 183// 184//
f 32// 165// 185//
f 184// 183// 32//
f 186// 32// 183//
f 186// 183// 187//
f 187// 183// 182//
f 187// 182// 188//
f 170// 32// 186//
f 189// 190// 191//
f 191// 190// 185//
f 191// 185// 192//
f 192// 185// 165//
f 192// 165// 164//
f 170// 186// 169//
f 169// 186// 187//
f 169// 187// 168//
f 168// 187// 188//
f 168// 188// 167//
f 193// 189// 194//
f 194// 189// 191//
f 194// 191// 195//
f 195// 191// 192//
f 195// 192// 196//
f 196// 192// 164//
f 196// 164// 163//
f 197// 193// 198//
f 198// 193// 194//
f 198// 194// 199//
f 199// 194// 195//
f 199// 195// 200//
f 200// 195// 196//
f 200// 196// 201//
f 201// 196// 163//
f 201// 163// 162//
f 166// 197// 181//
f 181// 197// 198//
f 181// 198// 202//
f 202// 198// 199//
f 202// 199// 203//
f 203// 199// 200//
f 203// 200// 204//
f 204// 200// 201//
f 204// 201// 205//
f 205// 201// 162//
f 205// 162// 161//
f 77// 181// 206//
f 206// 181// 202//
f 206// 202// 207//
f 207// 202// 203//
f 207// 203// 208//
f 208// 203// 204//
f 208// 204// 209//
f 209// 204// 205//
f 209// 205// 210//
f 210// 205// 161//
f 210// 161// 79//
f 190// 32// 185//
f 166// 167// 197//
f 197// 167// 188//
f 197// 188// 193//
f 193// 188// 182//
f 193// 182// 189//
f 189// 182// 184//
f 189// 184// 190//
f 190// 184// 32//
f 80// 176// 211//
f 212// 213// 214//
f 10// 175// 215//
f 214// 213// 10//
f 216// 10// 213//
f 216// 213// 217//
f 217// 213// 212//
f 217// 212// 218//
f 180// 10// 216//
f 219// 220// 221//
f 221// 220// 215//
f 221// 215// 222//
f 222// 215// 175//
f 222// 175// 174//
f 180// 216// 179//
f 179// 216// 217//
f 179// 217// 178//
f 178// 217// 218//
f 178// 218// 177//
f 223// 219// 224//
f 224// 219// 221//
f 224// 221// 225//
f 225// 221// 222//
f 225// 222// 226//
f 226// 222// 174//
f 226// 174// 173//
f 227// 223// 228//
f 228// 223// 224//
f 228// 224// 229//
f 229// 224// 225//
f 229// 225// 230//
f 230// 225// 226//
f 230// 226// 231//
f 231// 226// 173//
f 231// 173// 172//
f 176// 227// 211//
f 211// 227// 228//
f 211// 228// 232//
f 232// 228// 229//
f 232// 229// 233//
f 233// 229// 230//
f 233// 230// 234//
f 234// 230// 231//
f 234// 231// 235//
f 235// 231// 172//
f 235// 172// 171//
f 80// 211// 236//
f 236// 211// 232//
f 236// 232// 237//
f 237// 232// 233//
f 237// 233// 238//
f 238// 233// 234//
f 238// 234// 239//
f 239// 234// 235//
f 239// 235// 240//
f 240// 235// 171//
f 240// 171// 75//
f 220// 10// 215//
f 176// 177// 227//
f 227// 177// 218//
f 227// 218// 223//
f 223// 218// 212//
f 223// 212// 219//
f 219// 212// 214//
f 219// 214// 220//
f 220// 214// 10//
f 79// 80// 236//
f 79// 236// 210//
f 210// 236// 237//
f 210// 237// 209//
f 209// 237// 238//
f 209// 238// 208//
f 208// 238// 239//
f 208// 239// 207//
f 207// 239// 240//
f 207// 240// 206//
f 206// 240// 75//
f 206// 75// 77//
usemtl 2
f 241// 242// 243//
f 243// 242// 244//
f 243// 245// 241//
f 241// 245// 246//
f 242// 247// 244//
f 244// 247// 248//
f 249// 250// 251//
f 251// 250// 252//
f 250// 253// 252//
f 252// 253// 254//
f 251// 255// 249//
f 249// 255// 256//
f 249// 256// 250//
f 250// 256// 253//
f 257// 258// 259//
f 259// 258// 260//
f 257// 259// 261//
f 261// 259// 262//
f 258// 257// 263//
f 263// 257// 261//
f 260// 258// 264//
f 264// 258// 263//
f 259// 260// 262//
f 262// 260// 264//
f 265// 266// 267//
f 267// 266// 268//
f 265// 269// 266//
f 266// 269// 270//
f 267// 271// 265//
f 265// 271// 269//
f 266// 270// 268//
f 268// 270// 272//
f 246// 273// 241//
f 241// 273// 274//
f 241// 274// 242//
f 242// 274// 275//
f 242// 275// 247//
f 247// 275// 276//
f 248// 277// 244//
f 244// 277// 278//
f 244// 278// 243//
f 243// 278// 279//
f 243// 279// 245//
f 245// 279// 280//
f 245// 280// 246//
f 246// 280// 273//
f 271// 274// 269//
f 269// 274// 273//
f 269// 273// 270//
f 270// 273// 280//
f 270// 280// 272//
f 272// 280// 279//
f 252// 262// 251//
f 251// 262// 264//
f 251// 264// 255//
f 261// 267// 263//
f 263// 267// 268//
f 252// 254// 262//
f 262// 254// 275//
f 262// 275// 261//
f 261// 275// 274//
f 261// 274// 267//
f 267// 274// 271//
f 268// 272// 263//
f 263// 272// 279//
f 263// 279// 264//
f 264// 279// 278//
f 264// 278// 255//
f 255// 278// 256//
f 256// 278// 277//
f 256// 277// 253//
f 253// 277// 276//
f 253// 276// 254//
f 254// 276// 275//
f 247// 276// 248//
f 248// 276// 277//
usemtl 3
f 281// 282// 283//
f 283// 282// 284//
f 283// 284// 285//
f 285// 284// 286//
f 285// 286// 287//
f 287// 286// 288//
f 287// 288// 289//
f 289// 288// 290//
f 289// 290// 291//
f 291// 290// 292//
f 291// 292// 293//
f 293// 292// 294//
f 295// 296// 297//
f 297// 296// 298//
f 297// 298// 299//
f 299// 298// 300//
f 299// 300// 301//
f 301// 300// 302//
f 301// 302// 303//
f 303// 302// 304//
f 303// 304// 305//
f 305// 304// 306//
f 305// 306// 307//
f 307// 306// 308//
f 309// 310// 311//
f 311// 310// 312//
f 311// 312// 313//
f 313// 312// 314//
f 313// 314// 315//
f 315// 314// 316//
f 315// 316// 317//
f 317// 316// 318//
f 317// 318// 319//
f 319// 318// 320//
f 319// 320// 321//
f 321// 320// 322//
f 323// 324// 325//
f 325// 324// 326//
f 325// 326// 327//
f 327// 326// 328//
f 327// 328// 329//
f 329// 328// 330//
f 329// 330// 331//
f 331// 330// 332//
f 331// 332// 333//
f 333// 332// 334//
f 333// 334// 335//
f 335// 334// 336//
f 337// 338// 339//
f 340// 341// 342//
f 342// 341// 343//
f 342// 343// 344//
f 345// 346// 347//
f 347// 346// 348//
f 347// 348// 349//
f 349// 348// 350//
f 349// 350// 351//
f 351// 350// 352//
f 351// 352// 339//
f 339// 352// 344//
f 339// 344// 337//
f 337// 344// 343//
f 353// 354// 355//
f 355// 354// 356//
f 355// 356// 357//
f 357// 356// 358//
f 359// 357// 360//
f 360// 357// 358//
f 360// 358// 361//
f 361// 358// 362//
f 361// 362// 363//
f 363// 362// 364//
f 363// 364// 365//
f 365// 364// 366//
f 365// 366// 367//
f 367// 366// 368//
f 369// 370// 371//
f 372// 373// 374//
f 374// 373// 375//
f 374// 375// 376//
f 377// 378// 379//
f 379// 378// 380//
f 379// 380// 381//
f 381// 380// 382//
f 381// 382// 383//
f 383// 382// 384//
f 383// 384// 371//
f 371// 384// 376//
f 371// 376// 369//
f 369// 376// 375//
f 385// 386// 387//
f 387// 386// 388//
f 387// 388// 389//
f 389// 388// 390//
f 391// 389// 392//
f 392// 389// 390//
f 392// 390// 393//
f 393// 390// 394//
f 393// 394// 395//
f 395// 394// 396//
f 395// 396// 397//
f 397// 396// 398//
f 397// 398// 399//
f 399// 398// 400//
f 401// 402// 403//
f 401// 403// 404//
f 404// 403// 405//
f 404// 405// 406//
f 406// 405// 407//
f 406// 407// 408//
f 408// 407// 409//
f 408// 409// 410//
f 410// 409// 411//
f 410// 411// 412//
f 412// 411// 413//
f 412// 413// 414//
f 415// 416// 417//
f 415// 417// 418//
f 418// 417// 419//
f 418// 419// 420//
f 420// 419// 421//
f 420// 421// 422//
f 422// 421// 423//
f 422// 423// 424//
f 424// 423// 425//
f 424// 425// 426//
f 426// 425// 427//
f 426// 427// 428//
f 345// 429// 346//
f 346// 429// 430//
f 353// 341// 354//
f 354// 341// 340//
f 400// 431// 399//
f 399// 431// 432//
f 385// 373// 386//
f 386// 373// 372//
f 296// 295// 433//
f 433// 295// 434//
f 433// 434// 435//
f 436// 437// 438//
f 438// 437// 433//
f 438// 433// 439//
f 439// 433// 435//
f 308// 282// 307//
f 307// 282// 281//
f 321// 322// 440//
f 440// 322// 441//
f 440// 441// 442//
f 442// 441// 443//
f 444// 445// 441//
f 441// 445// 446//
f 441// 446// 443//
f 336// 310// 335//
f 335// 310// 309//
f 447// 448// 449//
f 449// 448// 450//
f 448// 447// 402//
f 402// 447// 451//
f 402// 451// 403//
f 403// 451// 405//
f 451// 452// 405//
f 405// 452// 453//
f 405// 453// 407//
f 407// 453// 454//
f 293// 294// 455//
f 455// 294// 413//
f 455// 413// 456//
f 456// 413// 411//
f 456// 411// 454//
f 454// 411// 409//
f 454// 409// 407//
f 447// 449// 451//
f 451// 449// 457//
f 458// 459// 457//
f 414// 324// 323//
f 449// 450// 457//
f 457// 450// 401//
f 323// 460// 414//
f 414// 460// 461//
f 414// 461// 412//
f 412// 461// 462//
f 401// 404// 457//
f 457// 404// 406//
f 457// 406// 458//
f 458// 406// 408//
f 458// 408// 462//
f 462// 408// 410//
f 462// 410// 412//
f 463// 464// 465//
f 465// 464// 466//
f 466// 464// 467//
f 467// 464// 468//
f 464// 463// 468//
f 468// 463// 427//
f 468// 427// 425//
f 425// 423// 468//
f 468// 423// 421//
f 468// 421// 419//
f 378// 377// 416//
f 416// 377// 468//
f 416// 468// 417//
f 417// 468// 419//
f 467// 367// 368//
f 465// 466// 428//
f 428// 466// 467//
f 428// 467// 426//
f 368// 415// 467//
f 467// 415// 418//
f 467// 418// 420//
f 420// 422// 467//
f 467// 422// 424//
f 467// 424// 426//
f 469// 470// 471//
f 469// 471// 472//
f 472// 471// 473//
f 472// 473// 474//
f 474// 473// 475//
f 474// 475// 476//
f 476// 475// 477//
f 476// 477// 478//
f 478// 477// 479//
f 478// 479// 480//
f 480// 479// 481//
f 480// 481// 482//
f 483// 484// 485//
f 483// 485// 486//
f 486// 485// 487//
f 486// 487// 488//
f 488// 487// 489//
f 488// 489// 490//
f 490// 489// 491//
f 490// 491// 492//
f 492// 491// 493//
f 492// 493// 494//
f 494// 493// 495//
f 494// 495// 496//
f 497// 498// 499//
f 499// 498// 500//
f 499// 500// 501//
f 501// 500// 502//
f 501// 502// 503//
f 503// 502// 504//
f 503// 504// 505//
f 505// 504// 506//
f 505// 506// 507//
f 507// 506// 508//
f 507// 508// 509//
f 509// 508// 510//
f 511// 512// 513//
f 511// 513// 514//
f 515// 516// 517//
f 517// 516// 518//
f 517// 518// 519//
f 519// 518// 520//
f 519// 520// 521//
f 521// 520// 522//
f 521// 522// 523//
f 523// 522// 524//
f 523// 524// 525//
f 525// 524// 526//
f 525// 526// 513//
f 513// 526// 527//
f 513// 527// 514//
f 528// 529// 530//
f 531// 532// 533//
f 533// 532// 534//
f 533// 534// 535//
f 535// 534// 536//
f 535// 536// 537//
f 537// 536// 538//
f 537// 538// 539//
f 539// 538// 540//
f 539// 540// 541//
f 541// 540// 542//
f 541// 542// 543//
f 543// 542// 528//
f 543// 528// 544//
f 544// 528// 530//
f 545// 546// 547//
f 547// 546// 548//
f 547// 548// 549//
f 549// 548// 550//
f 549// 550// 551//
f 551// 550// 552//
f 551// 552// 553//
f 553// 552// 554//
f 553// 554// 555//
f 555// 554// 556//
f 555// 556// 557//
f 557// 556// 558//
f 545// 559// 546//
f 546// 559// 560//
f 496// 561// 557//
f 557// 558// 483//
f 490// 492// 557//
f 557// 492// 494//
f 557// 494// 496//
f 483// 486// 557//
f 557// 486// 488//
f 557// 488// 490//
f 482// 498// 497//
f 497// 562// 469//
f 469// 472// 497//
f 497// 472// 474//
f 497// 474// 476//
f 476// 478// 497//
f 497// 478// 480//
f 497// 480// 482//
f 510// 563// 509//
f 509// 563// 564//
f 565// 513// 512//
f 566// 567// 568//
f 568// 567// 565//
f 568// 565// 569//
f 569// 565// 512//
f 570// 571// 470//
f 470// 571// 572//
f 470// 572// 471//
f 471// 572// 473//
f 516// 515// 572//
f 572// 515// 481//
f 572// 481// 479//
f 479// 477// 572//
f 572// 477// 475//
f 572// 475// 473//
f 573// 574// 575//
f 529// 528// 576//
f 576// 528// 573//
f 576// 573// 577//
f 577// 573// 575//
f 532// 531// 484//
f 484// 531// 578//
f 484// 578// 485//
f 485// 578// 487//
f 579// 580// 578//
f 578// 580// 495//
f 578// 495// 493//
f 493// 491// 578//
f 578// 491// 489//
f 578// 489// 487//
f 565// 567// 441//
f 441// 567// 444//
f 560// 559// 431//
f 431// 559// 432//
f 581// 582// 583//
f 583// 582// 584//
f 583// 584// 585//
f 585// 584// 586//
f 585// 586// 587//
f 587// 586// 588//
f 587// 588// 589//
f 589// 588// 590//
f 589// 590// 591//
f 591// 590// 592//
f 591// 592// 593//
f 593// 592// 594//
f 595// 596// 597//
f 597// 596// 598//
f 597// 598// 599//
f 599// 598// 600//
f 599// 600// 601//
f 601// 600// 602//
f 601// 602// 603//
f 603// 602// 604//
f 603// 604// 605//
f 605// 604// 606//
f 605// 606// 607//
f 607// 606// 608//
f 609// 610// 611//
f 611// 610// 612//
f 611// 612// 613//
f 613// 612// 614//
f 613// 614// 615//
f 615// 614// 616//
f 615// 616// 617//
f 617// 616// 618//
f 617// 618// 619//
f 619// 618// 620//
f 619// 620// 621//
f 621// 620// 622//
f 623// 624// 625//
f 625// 624// 626//
f 625// 626// 627//
f 627// 626// 628//
f 627// 628// 629//
f 629// 628// 630//
f 629// 630// 631//
f 631// 630// 632//
f 631// 632// 633//
f 633// 632// 634//
f 633// 634// 635//
f 635// 634// 636//
f 623// 621// 624//
f 624// 621// 622//
f 636// 582// 635//
f 635// 582// 581//
f 595// 593// 596//
f 596// 593// 594//
f 609// 607// 610//
f 610// 607// 608//
f 637// 638// 639//
f 639// 638// 640//
f 639// 640// 641//
f 641// 640// 642//
f 641// 642// 643//
f 643// 642// 644//
f 643// 644// 645//
f 646// 647// 648//
f 649// 650// 651//
f 651// 650// 652//
f 651// 652// 653//
f 653// 652// 654//
f 653// 654// 655//
f 655// 654// 656//
f 655// 656// 657//
f 657// 656// 658//
f 657// 658// 659//
f 659// 658// 660//
f 659// 660// 644//
f 644// 660// 661//
f 644// 661// 645//
f 649// 651// 648//
f 648// 651// 662//
f 648// 662// 646//
f 663// 664// 665//
f 665// 666// 663//
f 663// 666// 667//
f 663// 667// 668//
f 669// 670// 671//
f 664// 672// 665//
f 665// 672// 673//
f 665// 673// 671//
f 671// 673// 674//
f 671// 674// 669//
f 675// 676// 677//
f 670// 669// 676//
f 676// 669// 678//
f 676// 678// 677//
f 679// 680// 677//
f 677// 680// 681//
f 677// 681// 675//
f 682// 683// 684//
f 684// 683// 685//
f 684// 685// 686//
f 686// 685// 687//
f 686// 687// 679//
f 679// 687// 688//
f 679// 688// 680//
f 689// 690// 691//
f 690// 689// 692//
f 692// 689// 693//
f 692// 693// 694//
f 694// 695// 692//
f 692// 695// 696//
f 692// 696// 697//
f 691// 698// 689//
f 689// 698// 699//
f 689// 699// 700//
f 700// 699// 701//
f 700// 701// 702//
f 702// 701// 703//
f 704// 705// 706//
f 707// 706// 708//
f 708// 706// 709//
f 701// 704// 703//
f 703// 704// 706//
f 703// 706// 710//
f 710// 706// 707//
f 710// 707// 711//
f 709// 712// 708//
f 708// 712// 713//
f 708// 713// 714//
f 714// 713// 715//
f 714// 715// 716//
f 716// 715// 717//
f 716// 717// 718//
f 719// 720// 718//
f 718// 720// 721//
f 721// 722// 718//
f 718// 722// 723//
f 718// 723// 716//
f 724// 725// 726//
f 727// 728// 729//
f 729// 728// 730//
f 729// 730// 731//
f 726// 725// 732//
f 727// 729// 733//
f 733// 729// 734//
f 733// 734// 735//
f 732// 725// 735//
f 735// 725// 736//
f 735// 736// 733//
f 737// 738// 739//
f 737// 739// 740//
f 740// 739// 741//
f 740// 741// 726//
f 726// 741// 742//
f 726// 742// 724//
f 743// 744// 745//
f 745// 744// 746//
f 747// 739// 748//
f 748// 739// 738//
f 748// 738// 746//
f 746// 738// 749//
f 746// 749// 745//
f 750// 751// 743//
f 743// 751// 752//
f 743// 752// 744//
f 750// 743// 753//
f 753// 743// 754//
f 753// 754// 755//
f 755// 756// 753//
f 753// 756// 757//
f 753// 757// 758//
f 731// 663// 729//
f 729// 663// 668//
f 719// 648// 720//
f 720// 648// 647//
f 759// 760// 761//
f 762// 763// 764//
f 765// 766// 767//
f 768// 572// 763//
f 763// 572// 571//
f 763// 571// 764//
f 769// 770// 771//
f 772// 773// 774//
f 775// 776// 764//
f 764// 776// 777//
f 764// 777// 762//
f 766// 778// 767//
f 767// 778// 779//
f 767// 779// 780//
f 780// 779// 781//
f 780// 781// 782//
f 782// 783// 780//
f 780// 783// 784//
f 780// 784// 785//
f 760// 786// 572//
f 572// 786// 787//
f 769// 771// 788//
f 788// 771// 789//
f 788// 789// 772//
f 790// 791// 792//
f 793// 775// 794//
f 794// 775// 764//
f 794// 764// 767//
f 767// 764// 795//
f 767// 795// 765//
f 768// 796// 572//
f 572// 796// 797//
f 572// 797// 760//
f 760// 797// 798//
f 798// 799// 760//
f 760// 799// 800//
f 760// 800// 801//
f 801// 802// 760//
f 760// 802// 803//
f 760// 803// 761//
f 787// 804// 572//
f 572// 804// 805//
f 572// 805// 806//
f 806// 805// 807//
f 806// 807// 808//
f 809// 810// 811//
f 812// 813// 772//
f 772// 813// 814//
f 772// 814// 788//
f 808// 815// 806//
f 806// 815// 792//
f 806// 792// 816//
f 816// 792// 791//
f 759// 761// 817//
f 817// 761// 818//
f 817// 818// 819//
f 820// 821// 822//
f 822// 821// 817//
f 822// 817// 823//
f 823// 817// 819//
f 774// 824// 772//
f 772// 824// 825//
f 772// 825// 812//
f 812// 825// 826//
f 812// 826// 811//
f 811// 826// 827//
f 811// 827// 809//
f 790// 792// 828//
f 828// 792// 829//
f 828// 829// 830//
f 831// 832// 833//
f 833// 834// 831//
f 831// 834// 835//
f 831// 835// 836//
f 780// 837// 838//
f 838// 837// 839//
f 773// 840// 774//
f 774// 840// 841//
f 774// 841// 842//
f 842// 841// 828//
f 842// 828// 843//
f 843// 828// 830//
f 832// 831// 785//
f 785// 831// 844//
f 785// 844// 780//
f 780// 844// 845//
f 780// 845// 837//
f 846// 847// 839//
f 839// 847// 848//
f 839// 848// 838//
f 391// 849// 389//
f 389// 849// 850//
f 387// 389// 850//
f 337// 343// 638//
f 533// 535// 683//
f 355// 682// 353//
f 353// 682// 638//
f 353// 638// 341//
f 341// 638// 343//
f 357// 369// 355//
f 355// 369// 375//
f 355// 375// 682//
f 682// 375// 373//
f 682// 373// 385//
f 533// 683// 531//
f 535// 537// 683//
f 683// 537// 297//
f 683// 297// 299//
f 385// 387// 682//
f 682// 387// 850//
f 682// 850// 683//
f 683// 850// 578//
f 683// 578// 531//
f 299// 301// 683//
f 683// 301// 303//
f 683// 303// 305//
f 315// 317// 637//
f 637// 520// 518//
f 541// 543// 434//
f 520// 637// 522//
f 522// 637// 317//
f 522// 317// 319//
f 518// 516// 637//
f 637// 516// 572//
f 637// 572// 638//
f 638// 572// 806//
f 638// 806// 337//
f 537// 539// 297//
f 297// 539// 541//
f 297// 541// 295//
f 295// 541// 434//
f 309// 311// 637//
f 637// 311// 313//
f 637// 313// 315//
f 305// 307// 683//
f 683// 307// 281//
f 683// 281// 637//
f 637// 281// 283//
f 637// 283// 285//
f 287// 289// 331//
f 331// 289// 291//
f 331// 291// 329//
f 440// 527// 321//
f 321// 527// 526//
f 321// 526// 319//
f 319// 526// 524//
f 319// 524// 522//
f 287// 331// 285//
f 285// 331// 333//
f 285// 333// 637//
f 637// 333// 335//
f 637// 335// 309//
f 293// 455// 460//
f 460// 323// 293//
f 293// 323// 325//
f 293// 325// 291//
f 291// 325// 327//
f 291// 327// 329//
f 442// 511// 440//
f 440// 511// 514//
f 440// 514// 527//
f 443// 569// 442//
f 442// 569// 512//
f 442// 512// 511//
f 568// 569// 446//
f 446// 569// 443//
f 566// 568// 445//
f 445// 568// 446//
f 851// 852// 578//
f 853// 854// 855//
f 856// 857// 578//
f 856// 578// 858//
f 859// 860// 861//
f 861// 860// 862//
f 861// 862// 863//
f 855// 854// 864//
f 864// 854// 865//
f 864// 865// 866//
f 867// 855// 868//
f 868// 855// 869//
f 850// 870// 871//
f 872// 873// 852//
f 852// 873// 579//
f 852// 579// 578//
f 874// 875// 855//
f 855// 875// 876//
f 877// 857// 878//
f 878// 857// 879//
f 878// 879// 880//
f 880// 879// 881//
f 880// 881// 882//
f 872// 883// 873//
f 873// 883// 884//
f 873// 884// 885//
f 870// 850// 886//
f 886// 850// 849//
f 886// 849// 887//
f 867// 888// 855//
f 855// 888// 889//
f 855// 889// 890//
f 890// 891// 855//
f 855// 891// 892//
f 855// 892// 893//
f 871// 894// 850//
f 850// 894// 895//
f 850// 895// 578//
f 578// 895// 896//
f 578// 896// 858//
f 859// 897// 860//
f 860// 897// 898//
f 860// 898// 899//
f 899// 898// 873//
f 899// 873// 900//
f 900// 873// 885//
f 893// 901// 855//
f 855// 901// 902//
f 855// 902// 903//
f 903// 904// 855//
f 855// 904// 905//
f 855// 905// 874//
f 876// 906// 855//
f 855// 906// 907//
f 855// 907// 908//
f 908// 909// 855//
f 855// 909// 910//
f 855// 910// 853//
f 911// 912// 913//
f 913// 912// 914//
f 887// 915// 886//
f 886// 915// 916//
f 886// 916// 917//
f 917// 916// 918//
f 919// 920// 881//
f 881// 920// 921//
f 881// 921// 882//
f 877// 922// 857//
f 857// 922// 923//
f 857// 923// 578//
f 578// 923// 924//
f 578// 924// 851//
f 863// 862// 913//
f 913// 862// 925//
f 913// 925// 911//
f 914// 926// 913//
f 913// 926// 927//
f 913// 927// 928//
f 929// 918// 930//
f 930// 918// 916//
f 930// 916// 865//
f 865// 916// 931//
f 865// 931// 866//
f 932// 933// 934//
f 934// 933// 935//
f 934// 935// 936//
f 928// 937// 913//
f 913// 937// 934//
f 913// 934// 938//
f 938// 934// 936//
f 939// 940// 934//
f 934// 940// 941//
f 934// 941// 932//
f 942// 943// 944//
f 944// 943// 945//
f 944// 945// 934//
f 934// 945// 946//
f 934// 946// 939//
f 640// 638// 682//
f 640// 682// 642//
f 679// 677// 644//
f 644// 674// 659//
f 659// 674// 657//
f 679// 644// 686//
f 677// 678// 644//
f 644// 678// 669//
f 644// 669// 674//
f 642// 682// 644//
f 644// 682// 684//
f 644// 684// 686//
f 673// 672// 662//
f 662// 651// 673//
f 673// 651// 653//
f 673// 653// 674//
f 674// 653// 655//
f 674// 655// 657//
f 720// 647// 672//
f 672// 647// 646//
f 672// 646// 662//
f 722// 664// 663//
f 663// 731// 722//
f 722// 731// 730//
f 722// 730// 728//
f 664// 722// 672//
f 672// 722// 721//
f 672// 721// 720//
f 736// 714// 733//
f 733// 714// 716//
f 728// 727// 722//
f 722// 727// 733//
f 722// 733// 723//
f 723// 733// 716//
f 724// 742// 725//
f 725// 742// 711//
f 714// 736// 708//
f 708// 736// 725//
f 708// 725// 707//
f 707// 725// 711//
f 742// 741// 739//
f 747// 702// 739//
f 739// 702// 703//
f 739// 703// 742//
f 742// 703// 710//
f 742// 710// 711//
f 702// 747// 748//
f 748// 746// 702//
f 702// 746// 744//
f 702// 744// 700//
f 700// 744// 689//
f 744// 752// 751//
f 751// 750// 744//
f 744// 750// 753//
f 744// 753// 689//
f 689// 753// 697//
f 689// 697// 696//
f 696// 695// 689//
f 689// 695// 694//
f 689// 694// 693//
f 603// 605// 697//
f 697// 605// 607//
f 697// 607// 692//
f 692// 607// 609//
f 692// 609// 611//
f 583// 585// 753//
f 753// 585// 587//
f 753// 587// 589//
f 625// 627// 758//
f 758// 627// 629//
f 758// 629// 631//
f 631// 633// 758//
f 758// 633// 635//
f 758// 635// 753//
f 753// 635// 581//
f 753// 581// 583//
f 597// 599// 697//
f 697// 599// 601//
f 697// 601// 603//
f 611// 613// 692//
f 692// 613// 615//
f 692// 615// 617//
f 589// 591// 753//
f 753// 591// 593//
f 753// 593// 697//
f 697// 593// 595//
f 697// 595// 597//
f 617// 619// 692//
f 692// 619// 621//
f 692// 621// 758//
f 758// 621// 623//
f 758// 623// 625//
f 749// 705// 704//
f 704// 701// 749//
f 749// 701// 699//
f 749// 699// 745//
f 745// 699// 743//
f 699// 698// 691//
f 691// 690// 699//
f 699// 690// 692//
f 699// 692// 743//
f 743// 692// 758//
f 743// 758// 757//
f 757// 756// 743//
f 743// 756// 755//
f 743// 755// 754//
f 712// 709// 706//
f 705// 749// 706//
f 706// 749// 738//
f 706// 738// 712//
f 712// 738// 737//
f 712// 737// 740//
f 712// 740// 713//
f 713// 740// 726//
f 717// 715// 735//
f 735// 715// 713//
f 735// 713// 732//
f 732// 713// 726//
f 717// 735// 718//
f 718// 735// 734//
f 718// 734// 719//
f 719// 734// 729//
f 667// 666// 650//
f 719// 729// 648//
f 648// 729// 649//
f 649// 729// 650//
f 650// 729// 668//
f 650// 668// 667//
f 670// 676// 658//
f 665// 671// 654//
f 670// 658// 671//
f 671// 658// 656//
f 671// 656// 654//
f 665// 654// 666//
f 666// 654// 652//
f 666// 652// 650//
f 641// 683// 639//
f 639// 683// 637//
f 641// 643// 683//
f 683// 643// 645//
f 683// 645// 661//
f 675// 681// 661//
f 661// 681// 680//
f 661// 680// 688//
f 675// 661// 676//
f 676// 661// 660//
f 676// 660// 658//
f 688// 687// 661//
f 661// 687// 685//
f 661// 685// 683//
f 947// 948// 949//
f 949// 948// 950//
f 951// 952// 950//
f 950// 952// 953//
f 950// 953// 949//
f 950// 954// 951//
f 951// 954// 955//
f 951// 955// 956//
f 956// 955// 957//
f 956// 957// 958//
f 958// 957// 959//
f 958// 959// 960//
f 960// 959// 961//
f 962// 963// 964//
f 964// 963// 965//
f 964// 965// 966//
f 966// 965// 967//
f 966// 967// 961//
f 961// 967// 968//
f 961// 968// 960//
f 969// 970// 971//
f 969// 971// 972//
f 972// 971// 973//
f 972// 973// 974//
f 974// 973// 975//
f 974// 975// 976//
f 977// 978// 976//
f 976// 978// 979//
f 976// 979// 974//
f 980// 981// 982//
f 976// 983// 977//
f 977// 983// 980//
f 977// 980// 984//
f 984// 980// 982//
f 985// 986// 987//
f 987// 988// 985//
f 985// 988// 989//
f 985// 989// 990//
f 990// 989// 991//
f 990// 991// 981//
f 981// 991// 992//
f 981// 992// 982//
f 993// 994// 995//
f 996// 997// 998//
f 999// 1000// 1001//
f 1001// 1000// 1002//
f 1001// 1002// 995//
f 995// 1002// 996//
f 995// 996// 993//
f 1003// 1004// 1005//
f 1005// 1004// 1006//
f 1005// 1006// 1007//
f 1001// 1008// 999//
f 999// 1008// 1009//
f 999// 1009// 1006//
f 1006// 1009// 1010//
f 1006// 1010// 1007//
f 1011// 1012// 1013//
f 1014// 1011// 1015//
f 1015// 1011// 1013//
f 1015// 1013// 1016//
f 1016// 1013// 1017//
f 1003// 1005// 1013//
f 1013// 1005// 1018//
f 1013// 1018// 1017//
f 1019// 1020// 1021//
f 1019// 1021// 1022//
f 996// 998// 993//
f 993// 998// 1023//
f 993// 1023// 1021//
f 1021// 1023// 1024//
f 1021// 1024// 1022//
f 1025// 1026// 1020//
f 1020// 1026// 1027//
f 1020// 1027// 1028//
f 1028// 1029// 1020//
f 1020// 1029// 1030//
f 1020// 1030// 1021//
f 1031// 1032// 1033//
f 1034// 1035// 1036//
f 1037// 1038// 1039//
f 1039// 1038// 1040//
f 1039// 1040// 1041//
f 1042// 1043// 1044//
f 1044// 1043// 1045//
f 1044// 1045// 1046//
f 1046// 1045// 1047//
f 1039// 1034// 1037//
f 1037// 1034// 1036//
f 1037// 1036// 1048//
f 1048// 1036// 1047//
f 1048// 1047// 1049//
f 1049// 1047// 1045//
f 1042// 1050// 1043//
f 1043// 1050// 1051//
f 1043// 1051// 1052//
f 1052// 1051// 1053//
f 1054// 1055// 1056//
f 1053// 1051// 1033//
f 1033// 1051// 1054//
f 1033// 1054// 1031//
f 1057// 1058// 1059//
f 1057// 1059// 1060//
f 1054// 1056// 1031//
f 1031// 1056// 1061//
f 1031// 1061// 1059//
f 1059// 1061// 1062//
f 1059// 1062// 1060//
f 1063// 1064// 1058//
f 1058// 1064// 1065//
f 1058// 1065// 1066//
f 1066// 1067// 1058//
f 1058// 1067// 1068//
f 1058// 1068// 1059//
f 1069// 987// 986//
f 1069// 986// 1041//
f 1041// 986// 1070//
f 1041// 1070// 1039//
f 1071// 1014// 1015//
f 1071// 1015// 947//
f 947// 1015// 1072//
f 947// 1072// 948//
f 1073// 1074// 470//
f 1075// 1076// 1077//
f 1078// 1079// 470//
f 1078// 470// 1080//
f 1081// 1082// 1083//
f 1083// 1082// 1084//
f 1083// 1084// 1085//
f 1085// 1084// 1086//
f 1077// 1076// 1087//
f 1087// 1076// 1088//
f 1087// 1088// 1089//
f 469// 1090// 1091//
f 1092// 1093// 1074//
f 1074// 1093// 570//
f 1074// 570// 470//
f 1077// 1094// 1095//
f 1095// 1094// 1096//
f 1095// 1096// 1097//
f 1097// 1096// 1098//
f 1099// 1079// 1100//
f 1100// 1079// 1101//
f 1100// 1101// 1102//
f 1102// 1101// 1103//
f 1102// 1103// 1104//
f 1105// 1106// 1086//
f 1092// 1107// 1093//
f 1093// 1107// 1108//
f 1093// 1108// 1109//
f 1090// 469// 1110//
f 1110// 469// 562//
f 1110// 562// 1111//
f 1095// 1112// 1077//
f 1077// 1112// 1113//
f 1077// 1113// 1075//
f 1075// 1113// 1114//
f 1075// 1114// 1115//
f 1115// 1114// 1116//
f 1091// 1117// 469//
f 469// 1117// 1118//
f 469// 1118// 470//
f 470// 1118// 1119//
f 470// 1119// 1080//
f 1081// 1120// 1082//
f 1082// 1120// 1121//
f 1082// 1121// 1122//
f 1122// 1121// 1093//
f 1122// 1093// 1123//
f 1123// 1093// 1109//
f 1111// 1124// 1110//
f 1110// 1124// 1125//
f 1110// 1125// 1126//
f 1126// 1125// 1127//
f 1128// 1129// 1116//
f 1116// 1129// 1130//
f 1116// 1130// 1115//
f 1131// 1132// 1103//
f 1103// 1132// 1133//
f 1103// 1133// 1104//
f 1099// 1134// 1079//
f 1079// 1134// 1135//
f 1079// 1135// 470//
f 470// 1135// 1136//
f 470// 1136// 1073//
f 1137// 1138// 1139//
f 1140// 1106// 1141//
f 1141// 1106// 1142//
f 1140// 1143// 1106//
f 1106// 1143// 1144//
f 1106// 1144// 1086//
f 1145// 1127// 1146//
f 1146// 1127// 1125//
f 1146// 1125// 1088//
f 1088// 1125// 1147//
f 1088// 1147// 1089//
f 1105// 1086// 1148//
f 1148// 1086// 1084//
f 1148// 1084// 1149//
f 1149// 1084// 1150//
f 1149// 1150// 1139//
f 1139// 1150// 1151//
f 1139// 1151// 1137//
f 1133// 1132// 822//
f 822// 1132// 820//
f 1132// 1131// 820//
f 820// 1131// 821//
f 1131// 1103// 821//
f 821// 1103// 817//
f 1119// 804// 787//
f 1119// 787// 1080//
f 1080// 787// 786//
f 1080// 786// 1078//
f 1078// 786// 760//
f 1078// 760// 1079//
f 1079// 760// 759//
f 1079// 759// 1101//
f 1101// 759// 817//
f 1101// 817// 1103//
f 1119// 1118// 804//
f 804// 1118// 805//
f 1118// 1117// 805//
f 805// 1117// 807//
f 1117// 1091// 807//
f 807// 1091// 808//
f 1091// 1090// 808//
f 808// 1090// 815//
f 1090// 1110// 815//
f 815// 1110// 792//
f 1110// 1126// 792//
f 792// 1126// 829//
f 829// 1126// 830//
f 830// 1126// 1127//
f 830// 1127// 843//
f 843// 1127// 1145//
f 843// 1145// 842//
f 842// 1145// 1146//
f 842// 1146// 774//
f 774// 1146// 1088//
f 774// 1088// 824//
f 824// 1088// 1076//
f 824// 1076// 825//
f 825// 1076// 1075//
f 1114// 812// 811//
f 1114// 811// 1116//
f 1116// 811// 810//
f 1116// 810// 1128//
f 1128// 810// 809//
f 1128// 809// 1129//
f 1129// 809// 827//
f 1129// 827// 1130//
f 1130// 827// 826//
f 1130// 826// 1115//
f 1115// 826// 825//
f 1115// 825// 1075//
f 812// 1114// 813//
f 813// 1114// 1113//
f 813// 1113// 814//
f 814// 1113// 1112//
f 1094// 789// 771//
f 1094// 771// 1096//
f 1096// 771// 770//
f 1096// 770// 1098//
f 1098// 770// 769//
f 1098// 769// 1097//
f 1097// 769// 788//
f 1097// 788// 1095//
f 1095// 788// 814//
f 1095// 814// 1112//
f 1094// 1077// 789//
f 789// 1077// 772//
f 1124// 790// 828//
f 1124// 828// 1125//
f 1125// 828// 841//
f 1125// 841// 1147//
f 1147// 841// 840//
f 1147// 840// 1089//
f 1089// 840// 773//
f 1089// 773// 1087//
f 1087// 773// 772//
f 1087// 772// 1077//
f 1124// 1111// 790//
f 790// 1111// 791//
f 1111// 562// 791//
f 791// 562// 816//
f 963// 542// 540//
f 963// 540// 969//
f 540// 538// 969//
f 969// 538// 536//
f 969// 536// 534//
f 302// 300// 542//
f 296// 433// 573//
f 534// 532// 969//
f 969// 532// 484//
f 969// 484// 970//
f 970// 484// 483//
f 970// 483// 558//
f 515// 517// 963//
f 300// 298// 542//
f 542// 298// 296//
f 542// 296// 528//
f 528// 296// 573//
f 560// 431// 546//
f 546// 431// 400//
f 546// 400// 548//
f 548// 400// 398//
f 548// 398// 396//
f 352// 350// 508//
f 962// 502// 500//
f 525// 318// 316//
f 346// 430// 563//
f 396// 394// 548//
f 548// 394// 390//
f 548// 390// 388//
f 500// 498// 962//
f 962// 498// 482//
f 962// 482// 963//
f 963// 482// 481//
f 963// 481// 515//
f 328// 286// 330//
f 330// 286// 332//
f 565// 441// 513//
f 513// 441// 322//
f 513// 322// 525//
f 525// 322// 320//
f 525// 320// 318//
f 350// 348// 508//
f 508// 348// 346//
f 508// 346// 510//
f 510// 346// 563//
f 386// 372// 1152//
f 1152// 372// 374//
f 1152// 374// 376//
f 292// 290// 328//
f 328// 290// 288//
f 328// 288// 286//
f 380// 1153// 382//
f 382// 1153// 1152//
f 382// 1152// 384//
f 384// 1152// 376//
f 517// 519// 963//
f 963// 519// 521//
f 963// 521// 523//
f 324// 414// 413//
f 558// 556// 970//
f 970// 556// 554//
f 970// 554// 1154//
f 1154// 554// 552//
f 1154// 552// 1155//
f 1155// 552// 550//
f 1155// 550// 1156//
f 1156// 550// 548//
f 1156// 548// 1152//
f 1152// 548// 388//
f 1152// 388// 386//
f 378// 416// 415//
f 286// 284// 332//
f 332// 284// 282//
f 332// 282// 334//
f 334// 282// 963//
f 282// 308// 963//
f 963// 308// 306//
f 963// 306// 542//
f 542// 306// 304//
f 542// 304// 302//
f 328// 326// 292//
f 292// 326// 324//
f 292// 324// 294//
f 294// 324// 413//
f 364// 380// 366//
f 366// 380// 378//
f 366// 378// 368//
f 368// 378// 415//
f 316// 314// 525//
f 525// 314// 312//
f 525// 312// 523//
f 523// 312// 310//
f 523// 310// 963//
f 963// 310// 336//
f 963// 336// 334//
f 364// 362// 380//
f 380// 362// 358//
f 380// 358// 1153//
f 1153// 358// 356//
f 356// 354// 1153//
f 1153// 354// 340//
f 1153// 340// 342//
f 502// 962// 504//
f 504// 962// 1153//
f 504// 1153// 506//
f 506// 1153// 342//
f 506// 342// 508//
f 508// 342// 344//
f 508// 344// 352//
f 570// 1093// 571//
f 571// 1093// 764//
f 781// 1081// 782//
f 782// 1081// 1083//
f 782// 1083// 783//
f 783// 1083// 1085//
f 783// 1085// 784//
f 781// 779// 1081//
f 1081// 779// 778//
f 1081// 778// 1120//
f 764// 1093// 795//
f 795// 1093// 1121//
f 795// 1121// 765//
f 765// 1121// 1120//
f 765// 1120// 766//
f 766// 1120// 778//
f 1085// 1086// 784//
f 784// 1086// 785//
f 785// 1086// 832//
f 832// 1086// 1144//
f 1106// 831// 836//
f 1106// 836// 1142//
f 1142// 836// 835//
f 1142// 835// 1141//
f 1141// 835// 834//
f 1141// 834// 1140//
f 1140// 834// 833//
f 1140// 833// 1143//
f 1143// 833// 832//
f 1143// 832// 1144//
f 831// 1106// 844//
f 844// 1106// 1105//
f 1105// 1148// 844//
f 844// 1148// 845//
f 845// 1148// 837//
f 837// 1148// 1149//
f 1150// 838// 848//
f 1150// 848// 1151//
f 1151// 848// 847//
f 1151// 847// 1137//
f 1137// 847// 846//
f 1137// 846// 1138//
f 1138// 846// 839//
f 1138// 839// 1139//
f 1139// 839// 837//
f 1139// 837// 1149//
f 838// 1150// 780//
f 780// 1150// 1084//
f 780// 1084// 767//
f 767// 1084// 1082//
f 767// 1082// 794//
f 794// 1082// 1122//
f 794// 1122// 793//
f 793// 1122// 1123//
f 793// 1123// 775//
f 775// 1123// 1109//
f 775// 1109// 776//
f 776// 1109// 1108//
f 1108// 1107// 776//
f 776// 1107// 777//
f 1107// 1092// 777//
f 777// 1092// 762//
f 1092// 1074// 762//
f 762// 1074// 763//
f 1074// 1073// 763//
f 763// 1073// 768//
f 768// 1073// 796//
f 796// 1073// 1136//
f 1136// 1135// 796//
f 796// 1135// 797//
f 797// 1135// 1134//
f 1133// 822// 823//
f 1133// 823// 1104//
f 1104// 823// 819//
f 1104// 819// 1102//
f 1102// 819// 818//
f 1102// 818// 1100//
f 1100// 818// 761//
f 1100// 761// 803//
f 803// 802// 1100//
f 1100// 802// 801//
f 1100// 801// 1099//
f 801// 800// 1099//
f 1099// 800// 799//
f 1099// 799// 1134//
f 1134// 799// 798//
f 1134// 798// 797//
f 1157// 1158// 1159//
f 1160// 1161// 1162//
f 1159// 1158// 1163//
f 1164// 1165// 1166//
f 1158// 1167// 1163//
f 1163// 1167// 1168//
f 1163// 1168// 1169//
f 1166// 1165// 1170//
f 1170// 1165// 1171//
f 1170// 1171// 1172//
f 1173// 1174// 1175//
f 1176// 1177// 1178//
f 1179// 1180// 1162//
f 1162// 1180// 1181//
f 1162// 1181// 1160//
f 1182// 495// 1161//
f 1161// 495// 580//
f 1161// 580// 1162//
f 1166// 1183// 495//
f 495// 1183// 1184//
f 1173// 1175// 1185//
f 1185// 1175// 1186//
f 1185// 1186// 1176//
f 1187// 1188// 1189//
f 1190// 1179// 1191//
f 1191// 1179// 1162//
f 1191// 1162// 1159//
f 1159// 1162// 1192//
f 1159// 1192// 1157//
f 1184// 1193// 495//
f 495// 1193// 1194//
f 495// 1194// 496//
f 496// 1194// 1195//
f 496// 1195// 1196//
f 1197// 1198// 1199//
f 1200// 1201// 1176//
f 1176// 1201// 1202//
f 1176// 1202// 1185//
f 1196// 1203// 496//
f 496// 1203// 1189//
f 496// 1189// 561//
f 561// 1189// 1188//
f 1204// 1205// 1206//
f 1206// 1207// 1204//
f 1204// 1207// 1208//
f 1204// 1208// 1209//
f 1163// 1210// 1211//
f 1211// 1210// 1212//
f 1182// 1213// 495//
f 495// 1213// 1214//
f 495// 1214// 1166//
f 1166// 1214// 1215//
f 1166// 1215// 1164//
f 1216// 1217// 1218//
f 1218// 1217// 1172//
f 1218// 1172// 1219//
f 1219// 1172// 1171//
f 1178// 1220// 1176//
f 1176// 1220// 1221//
f 1176// 1221// 1200//
f 1200// 1221// 1222//
f 1200// 1222// 1199//
f 1199// 1222// 1223//
f 1199// 1223// 1197//
f 1187// 1189// 1224//
f 1224// 1189// 1225//
f 1224// 1225// 1226//
f 1205// 1204// 1169//
f 1169// 1204// 1227//
f 1169// 1227// 1163//
f 1163// 1227// 1228//
f 1163// 1228// 1210//
f 1177// 1229// 1178//
f 1178// 1229// 1230//
f 1178// 1230// 1231//
f 1231// 1230// 1224//
f 1231// 1224// 1232//
f 1232// 1224// 1226//
f 1233// 1234// 1212//
f 1212// 1234// 1235//
f 1212// 1235// 1211//
f 1153// 962// 964//
f 966// 961// 1236//
f 1236// 961// 959//
f 959// 957// 1236//
f 1236// 957// 955//
f 1236// 955// 954//
f 954// 950// 1236//
f 1236// 950// 948//
f 1236// 948// 1072//
f 975// 973// 1154//
f 1154// 973// 971//
f 1154// 971// 970//
f 1070// 986// 1154//
f 1154// 986// 985//
f 985// 990// 1154//
f 1154// 990// 981//
f 1154// 981// 980//
f 980// 983// 1154//
f 1154// 983// 976//
f 1154// 976// 975//
f 1070// 1154// 1237//
f 1237// 1154// 1155//
f 1237// 1155// 1238//
f 1238// 1155// 1156//
f 1238// 1156// 1239//
f 1239// 1156// 1152//
f 1239// 1152// 1240//
f 1240// 1152// 1153//
f 1240// 1153// 1236//
f 1236// 1153// 964//
f 1236// 964// 966//
f 1238// 1239// 1035//
f 1035// 1239// 1017//
f 1039// 1070// 1237//
f 1236// 1072// 1015//
f 1238// 1035// 1237//
f 1237// 1035// 1034//
f 1237// 1034// 1039//
f 1239// 1240// 1017//
f 1017// 1240// 1236//
f 1017// 1236// 1016//
f 1016// 1236// 1015//
f 1035// 1017// 1036//
f 1036// 1017// 1047//
f 1007// 1046// 1005//
f 1005// 1046// 1047//
f 1005// 1047// 1018//
f 1018// 1047// 1017//
f 1046// 1007// 1044//
f 1044// 1007// 1042//
f 1008// 1050// 1009//
f 1009// 1050// 1042//
f 1009// 1042// 1010//
f 1010// 1042// 1007//
f 994// 1055// 995//
f 995// 1055// 1054//
f 1008// 1001// 1050//
f 1050// 1001// 995//
f 1050// 995// 1051//
f 1051// 995// 1054//
f 994// 993// 1055//
f 1055// 993// 1021//
f 1055// 1021// 1056//
f 1056// 1021// 1061//
f 1021// 1030// 1029//
f 1061// 1021// 1062//
f 1062// 1021// 1026//
f 1062// 1026// 1063//
f 1029// 1028// 1021//
f 1021// 1028// 1027//
f 1021// 1027// 1026//
f 1058// 1057// 1063//
f 1063// 1057// 1060//
f 1063// 1060// 1062//
f 586// 584// 1063//
f 1063// 584// 582//
f 1063// 582// 1064//
f 1064// 582// 636//
f 1064// 636// 634//
f 634// 632// 1064//
f 1064// 632// 630//
f 1064// 630// 628//
f 592// 590// 1063//
f 1063// 590// 588//
f 1063// 588// 586//
f 606// 604// 1026//
f 1026// 604// 602//
f 1026// 602// 600//
f 620// 618// 1025//
f 1025// 618// 616//
f 1025// 616// 614//
f 628// 626// 1064//
f 1064// 626// 624//
f 1064// 624// 1025//
f 1025// 624// 622//
f 1025// 622// 620//
f 614// 612// 1025//
f 1025// 612// 610//
f 1025// 610// 1026//
f 1026// 610// 608//
f 1026// 608// 606//
f 600// 598// 1026//
f 1026// 598// 596//
f 1026// 596// 1063//
f 1063// 596// 594//
f 1063// 594// 592//
f 1024// 1032// 1031//
f 1024// 1023// 1032//
f 1032// 1023// 998//
f 1032// 998// 997//
f 1059// 1068// 1067//
f 1031// 1059// 1024//
f 1024// 1059// 1064//
f 1024// 1064// 1025//
f 1067// 1066// 1059//
f 1059// 1066// 1065//
f 1059// 1065// 1064//
f 1020// 1019// 1025//
f 1025// 1019// 1022//
f 1025// 1022// 1024//
f 1032// 997// 1033//
f 1033// 997// 996//
f 1052// 1053// 1000//
f 1000// 1053// 1033//
f 1000// 1033// 1002//
f 1002// 1033// 996//
f 1052// 1000// 1043//
f 1043// 1000// 999//
f 1049// 1045// 1004//
f 1004// 1045// 1043//
f 1004// 1043// 1006//
f 1006// 1043// 999//
f 1012// 1038// 1013//
f 1013// 1038// 1003//
f 1049// 1004// 1048//
f 1048// 1004// 1003//
f 1048// 1003// 1037//
f 1037// 1003// 1038//
f 1014// 1071// 1241//
f 1242// 1038// 1243//
f 1243// 1038// 1012//
f 1243// 1012// 1241//
f 1241// 1012// 1011//
f 1241// 1011// 1014//
f 1244// 1069// 1041//
f 1242// 1245// 1038//
f 1038// 1245// 1244//
f 1038// 1244// 1040//
f 1040// 1244// 1041//
f 953// 952// 1246//
f 1071// 947// 1246//
f 1246// 947// 949//
f 1246// 949// 953//
f 991// 989// 1247//
f 1247// 989// 988//
f 1247// 988// 987//
f 1071// 1246// 1241//
f 1241// 1246// 1248//
f 1241// 1248// 1243//
f 1243// 1248// 1249//
f 1243// 1249// 1242//
f 1242// 1249// 1250//
f 1242// 1250// 1245//
f 1245// 1250// 1247//
f 1245// 1247// 1244//
f 1244// 1247// 987//
f 1244// 987// 1069//
f 956// 958// 969//
f 969// 958// 960//
f 969// 960// 968//
f 968// 967// 969//
f 969// 967// 965//
f 969// 965// 963//
f 974// 979// 1247//
f 979// 978// 1247//
f 1247// 978// 977//
f 1247// 977// 984//
f 984// 982// 1247//
f 1247// 982// 992//
f 1247// 992// 991//
f 1250// 969// 1247//
f 1247// 969// 972//
f 1247// 972// 974//
f 1250// 1249// 969//
f 969// 1249// 1248//
f 969// 1248// 956//
f 956// 1248// 1246//
f 956// 1246// 951//
f 951// 1246// 952//
f 920// 1216// 921//
f 921// 1216// 1218//
f 919// 1217// 920//
f 920// 1217// 1216//
f 881// 1172// 919//
f 919// 1172// 1217//
f 896// 1193// 1184//
f 896// 1184// 858//
f 858// 1184// 1183//
f 858// 1183// 856//
f 856// 1183// 1166//
f 856// 1166// 857//
f 857// 1166// 1170//
f 857// 1170// 879//
f 879// 1170// 1172//
f 879// 1172// 881//
f 895// 1194// 896//
f 896// 1194// 1193//
f 894// 1195// 895//
f 895// 1195// 1194//
f 871// 1196// 894//
f 894// 1196// 1195//
f 870// 1203// 871//
f 871// 1203// 1196//
f 886// 1189// 870//
f 870// 1189// 1203//
f 917// 1225// 886//
f 886// 1225// 1189//
f 1226// 1225// 918//
f 918// 1225// 917//
f 1232// 1226// 929//
f 929// 1226// 918//
f 1231// 1232// 930//
f 930// 1232// 929//
f 1178// 1231// 865//
f 865// 1231// 930//
f 1220// 1178// 854//
f 854// 1178// 865//
f 1221// 1220// 853//
f 853// 1220// 854//
f 903// 1200// 904//
f 904// 1200// 1199//
f 904// 1199// 905//
f 905// 1199// 874//
f 874// 1199// 1198//
f 874// 1198// 875//
f 875// 1198// 876//
f 876// 1198// 1197//
f 876// 1197// 906//
f 906// 1197// 907//
f 907// 1197// 1223//
f 907// 1223// 908//
f 908// 1223// 909//
f 909// 1223// 1222//
f 909// 1222// 910//
f 910// 1222// 1221//
f 910// 1221// 853//
f 1201// 1200// 902//
f 902// 1200// 903//
f 1202// 1201// 901//
f 901// 1201// 902//
f 869// 1186// 868//
f 868// 1186// 1175//
f 868// 1175// 867//
f 867// 1175// 888//
f 888// 1175// 1174//
f 888// 1174// 889//
f 889// 1174// 890//
f 890// 1174// 1173//
f 890// 1173// 891//
f 891// 1173// 892//
f 892// 1173// 1185//
f 892// 1185// 893//
f 893// 1185// 1202//
f 893// 1202// 901//
f 855// 1176// 869//
f 869// 1176// 1186//
f 915// 1187// 1224//
f 915// 1224// 916//
f 916// 1224// 1230//
f 916// 1230// 931//
f 931// 1230// 1229//
f 931// 1229// 866//
f 866// 1229// 1177//
f 866// 1177// 864//
f 864// 1177// 1176//
f 864// 1176// 855//
f 887// 1188// 915//
f 915// 1188// 1187//
f 849// 561// 887//
f 887// 561// 1188//
f 873// 1162// 579//
f 579// 1162// 580//
f 863// 1168// 1167//
f 863// 1167// 861//
f 861// 1167// 1158//
f 861// 1158// 859//
f 859// 1158// 1157//
f 859// 1157// 897//
f 897// 1157// 1192//
f 897// 1192// 898//
f 898// 1192// 1162//
f 898// 1162// 873//
f 913// 1169// 863//
f 863// 1169// 1168//
f 1205// 1169// 938//
f 938// 1169// 913//
f 945// 1204// 1209//
f 941// 940// 1208//
f 1208// 940// 939//
f 1208// 939// 1209//
f 1209// 939// 946//
f 1209// 946// 945//
f 941// 1208// 932//
f 932// 1208// 1207//
f 932// 1207// 933//
f 933// 1207// 935//
f 935// 1207// 1206//
f 935// 1206// 936//
f 936// 1206// 1205//
f 936// 1205// 938//
f 1227// 1204// 943//
f 943// 1204// 945//
f 942// 1228// 943//
f 943// 1228// 1227//
f 1210// 1228// 944//
f 944// 1228// 942//
f 1210// 944// 934//
f 925// 1211// 911//
f 911// 1211// 1235//
f 911// 1235// 912//
f 912// 1235// 914//
f 914// 1235// 926//
f 926// 1235// 1234//
f 926// 1234// 927//
f 927// 1234// 928//
f 928// 1234// 1233//
f 928// 1233// 937//
f 937// 1233// 934//
f 934// 1233// 1212//
f 934// 1212// 1210//
f 1163// 1211// 862//
f 862// 1211// 925//
f 1159// 1163// 860//
f 860// 1163// 862//
f 1191// 1159// 899//
f 899// 1159// 860//
f 1190// 1191// 900//
f 900// 1191// 899//
f 1179// 1190// 885//
f 885// 1190// 900//
f 1180// 1179// 884//
f 884// 1179// 885//
f 883// 1181// 884//
f 884// 1181// 1180//
f 872// 1160// 883//
f 883// 1160// 1181//
f 852// 1161// 872//
f 872// 1161// 1160//
f 851// 1182// 852//
f 852// 1182// 1161//
f 1213// 1182// 924//
f 924// 1182// 851//
f 923// 1214// 924//
f 924// 1214// 1213//
f 921// 1218// 1219//
f 921// 1219// 882//
f 882// 1219// 1171//
f 882// 1171// 880//
f 880// 1171// 1165//
f 880// 1165// 878//
f 878// 1165// 1164//
f 878// 1164// 877//
f 877// 1164// 1215//
f 877// 1215// 922//
f 922// 1215// 1214//
f 922// 1214// 923//
f 393// 395// 547//
f 549// 551// 391//
f 391// 551// 553//
f 549// 391// 547//
f 547// 391// 392//
f 547// 392// 393//
f 399// 432// 559//
f 395// 397// 547//
f 547// 397// 399//
f 547// 399// 545//
f 545// 399// 559//
f 561// 849// 557//
f 557// 849// 391//
f 557// 391// 555//
f 555// 391// 553//
f 444// 567// 445//
f 445// 567// 566//
f 574// 573// 437//
f 437// 573// 433//
f 401// 450// 402//
f 402// 450// 448//
f 564// 563// 429//
f 429// 563// 430//
f 427// 463// 428//
f 428// 463// 465//
f 337// 806// 338//
f 338// 806// 816//
f 359// 370// 357//
f 357// 370// 369//
f 530// 435// 544//
f 544// 435// 434//
f 544// 434// 543//
f 461// 460// 456//
f 456// 460// 455//
f 435// 530// 439//
f 439// 530// 529//
f 439// 529// 576//
f 462// 461// 454//
f 454// 461// 456//
f 576// 577// 439//
f 439// 577// 438//
f 458// 462// 453//
f 453// 462// 454//
f 577// 575// 438//
f 438// 575// 436//
f 459// 458// 452//
f 452// 458// 453//
f 501// 503// 338//
f 501// 338// 499//
f 507// 349// 351//
f 564// 429// 509//
f 509// 429// 345//
f 509// 345// 507//
f 507// 345// 347//
f 507// 347// 349//
f 503// 505// 338//
f 338// 505// 507//
f 338// 507// 339//
f 339// 507// 351//
f 499// 338// 497//
f 497// 338// 816//
f 497// 816// 562//
f 359// 379// 381//
f 381// 383// 359//
f 359// 383// 371//
f 359// 371// 370//
f 359// 360// 379//
f 379// 360// 361//
f 379// 361// 363//
f 367// 467// 468//
f 363// 365// 379//
f 379// 365// 367//
f 379// 367// 377//
f 377// 367// 468//
f 436// 575// 437//
f 437// 575// 574//
f 451// 457// 452//
f 452// 457// 459//
f 1251// 1252// 1253//
f 1253// 1252// 1254//
f 1253// 1254// 1255//
f 1255// 1254// 1256//
f 1255// 1256// 1257//
f 1258// 1259// 1260//
f 1260// 1259// 1261//
f 1260// 1261// 1262//
f 1262// 1261// 1263//
f 1262// 1263// 1264//
f 1256// 1265// 1257//
f 1257// 1265// 1266//
f 1257// 1266// 1267//
f 1267// 1266// 1268//
f 1267// 1268// 1269//
f 1269// 1268// 1270//
f 1269// 1270// 1271//
f 1271// 1270// 1272//
f 1271// 1272// 1273//
f 1273// 1272// 1274//
f 1273// 1274// 1275//
f 1275// 1274// 1264//
f 1275// 1264// 1276//
f 1276// 1264// 1263//
f 1277// 1278// 1279//
f 1279// 1278// 1280//
f 1279// 1280// 1281//
f 1281// 1280// 1282//
f 1281// 1282// 1283//
f 1283// 1282// 1284//
f 1283// 1284// 1285//
f 1285// 1284// 1286//
f 1285// 1286// 1287//
f 1287// 1286// 1288//
f 1288// 1286// 1289//
f 1288// 1289// 1290//
f 1290// 1289// 1291//
f 1290// 1291// 1292//
f 1293// 1294// 1295//
f 1295// 1294// 1296//
f 1295// 1296// 1297//
f 1297// 1296// 1298//
f 1297// 1298// 1299//
f 1299// 1298// 1300//
f 1299// 1300// 1301//
f 1301// 1300// 1292//
f 1301// 1292// 1302//
f 1302// 1292// 1291//
f 1254// 1252// 1295//
f 1295// 1252// 1293//
f 1291// 1289// 1270//
f 1270// 1289// 1272//
f 1280// 1278// 1260//
f 1260// 1278// 1258//
f 1278// 1277// 1258//
f 1258// 1277// 1259//
f 1261// 1259// 1279//
f 1279// 1259// 1277//
f 1288// 1290// 1271//
f 1271// 1290// 1269//
f 1296// 1294// 1253//
f 1253// 1294// 1251//
f 1294// 1293// 1251//
f 1251// 1293// 1252//
f 1269// 1290// 1267//
f 1267// 1290// 1292//
f 1267// 1292// 1257//
f 1257// 1292// 1300//
f 1257// 1300// 1255//
f 1255// 1300// 1298//
f 1255// 1298// 1253//
f 1253// 1298// 1296//
f 1272// 1289// 1274//
f 1274// 1289// 1286//
f 1274// 1286// 1264//
f 1264// 1286// 1284//
f 1264// 1284// 1262//
f 1262// 1284// 1282//
f 1262// 1282// 1260//
f 1260// 1282// 1280//
f 1261// 1279// 1281//
f 1261// 1281// 1263//
f 1263// 1281// 1283//
f 1263// 1283// 1276//
f 1276// 1283// 1285//
f 1276// 1285// 1275//
f 1275// 1285// 1287//
f 1275// 1287// 1273//
f 1273// 1287// 1288//
f 1273// 1288// 1271//
f 1291// 1270// 1268//
f 1291// 1268// 1302//
f 1302// 1268// 1266//
f 1302// 1266// 1301//
f 1301// 1266// 1265//
f 1301// 1265// 1299//
f 1299// 1265// 1256//
f 1299// 1256// 1297//
f 1297// 1256// 1254//
f 1297// 1254// 1295//
f 1303// 1304// 1305//
f 1305// 1304// 1306//
f 1304// 1307// 1306//
f 1306// 1307// 1308//
f 1307// 1309// 1308//
f 1308// 1309// 1310//
f 1309// 1303// 1310//
f 1310// 1303// 1305//
f 1310// 1311// 1308//
f 1308// 1311// 1312//
f 1308// 1312// 1306//
f 1306// 1312// 1313//
f 1306// 1313// 1305//
f 1305// 1313// 1314//
f 1305// 1314// 1310//
f 1310// 1314// 1311//
f 1304// 1315// 1307//
f 1307// 1315// 1316//
f 1307// 1316// 1309//
f 1309// 1316// 1317//
f 1309// 1317// 1303//
f 1303// 1317// 1318//
f 1303// 1318// 1304//
f 1304// 1318// 1315//
f 1317// 1316// 1311//
f 1311// 1316// 1312//
f 1316// 1315// 1312//
f 1312// 1315// 1313//
f 1315// 1318// 1313//
f 1313// 1318// 1314//
f 1318// 1317// 1314//
f 1314// 1317// 1311//
f 1319// 1320// 1321//
f 1322// 1323// 1324//
f 1324// 1323// 1320//
f 1324// 1320// 1325//
f 1325// 1320// 1319//
f 1325// 1319// 1326//
f 1326// 1319// 1327//
f 1328// 1329// 1330//
f 1330// 1329// 1331//
f 1330// 1331// 1332//
f 1332// 1331// 1333//
f 1332// 1333// 1334//
f 1334// 1333// 1335//
f 1334// 1335// 1336//
f 1336// 1335// 1337//
f 1336// 1337// 1338//
f 1338// 1337// 1339//
f 1338// 1339// 1340//
f 1340// 1339// 1341//
f 1340// 1341// 1342//
f 1342// 1341// 1343//
f 1342// 1343// 1344//
f 1344// 1343// 1345//
f 1344// 1345// 1346//
f 1346// 1345// 1347//
f 1346// 1347// 1348//
f 1348// 1347// 1349//
f 1348// 1349// 1350//
f 1350// 1349// 1351//
f 1350// 1351// 1321//
f 1321// 1351// 1352//
f 1321// 1352// 1319//
f 1353// 1354// 1355//
f 1356// 1357// 1355//
f 1355// 1357// 1358//
f 1355// 1358// 1353//
f 1359// 1360// 1361//
f 1361// 1360// 1362//
f 1361// 1362// 1363//
f 1363// 1362// 1364//
f 1363// 1364// 1365//
f 1365// 1364// 1366//
f 1365// 1366// 1367//
f 1367// 1366// 1368//
f 1367// 1368// 1369//
f 1369// 1368// 1370//
f 1369// 1370// 1371//
f 1371// 1370// 1372//
f 1371// 1372// 1373//
f 1373// 1372// 1374//
f 1373// 1374// 1375//
f 1375// 1374// 1376//
f 1375// 1376// 1377//
f 1377// 1376// 1378//
f 1377// 1378// 1379//
f 1379// 1378// 1380//
f 1379// 1380// 1381//
f 1381// 1380// 1382//
f 1381// 1382// 1383//
f 1383// 1382// 1354//
f 1383// 1354// 1384//
f 1384// 1354// 1353//
f 1384// 1353// 1385//
f 1385// 1353// 1386//
f 1358// 1357// 1324//
f 1324// 1357// 1322//
f 1357// 1356// 1322//
f 1322// 1356// 1323//
f 1356// 1355// 1323//
f 1323// 1355// 1320//
f 1355// 1354// 1320//
f 1320// 1354// 1321//
f 1354// 1382// 1321//
f 1321// 1382// 1350//
f 1348// 1350// 1380//
f 1380// 1350// 1382//
f 1372// 1370// 1340//
f 1340// 1370// 1338//
f 1362// 1360// 1330//
f 1330// 1360// 1328//
f 1360// 1359// 1328//
f 1328// 1359// 1329//
f 1331// 1329// 1361//
f 1361// 1329// 1359//
f 1369// 1371// 1339//
f 1339// 1371// 1341//
f 1379// 1381// 1349//
f 1349// 1381// 1351//
f 1381// 1383// 1351//
f 1351// 1383// 1352//
f 1383// 1384// 1352//
f 1352// 1384// 1319//
f 1384// 1385// 1319//
f 1319// 1385// 1327//
f 1385// 1386// 1327//
f 1327// 1386// 1326//
f 1386// 1353// 1326//
f 1326// 1353// 1325//
f 1353// 1358// 1325//
f 1325// 1358// 1324//
f 1338// 1370// 1368//
f 1338// 1368// 1336//
f 1336// 1368// 1366//
f 1336// 1366// 1334//
f 1334// 1366// 1364//
f 1334// 1364// 1332//
f 1332// 1364// 1362//
f 1332// 1362// 1330//
f 1379// 1349// 1347//
f 1379// 1347// 1377//
f 1377// 1347// 1345//
f 1377// 1345// 1375//
f 1375// 1345// 1343//
f 1375// 1343// 1373//
f 1373// 1343// 1341//
f 1373// 1341// 1371//
f 1348// 1380// 1346//
f 1346// 1380// 1378//
f 1346// 1378// 1344//
f 1344// 1378// 1376//
f 1344// 1376// 1342//
f 1342// 1376// 1374//
f 1342// 1374// 1340//
f 1340// 1374// 1372//
f 1331// 1361// 1333//
f 1333// 1361// 1363//
f 1333// 1363// 1335//
f 1335// 1363// 1365//
f 1335// 1365// 1337//
f 1337// 1365// 1367//
f 1337// 1367// 1339//
f 1339// 1367// 1369//
f 1387// 1388// 1389//
f 1389// 1388// 1390//
f 1389// 1390// 1391//
f 1391// 1390// 1392//
f 1391// 1392// 1393//
f 1393// 1392// 1394//
f 1393// 1394// 1395//
f 1395// 1394// 1396//
f 1397// 1398// 1399//
f 1400// 1401// 1396//
f 1396// 1401// 1402//
f 1396// 1402// 1395//
f 1399// 1403// 1397//
f 1397// 1403// 1404//
f 1397// 1404// 1405//
f 1405// 1404// 1406//
f 1405// 1406// 1400//
f 1400// 1406// 1407//
f 1400// 1407// 1401//
f 1408// 1409// 1410//
f 1410// 1409// 1411//
f 1410// 1411// 1412//
f 1412// 1411// 1413//
f 1412// 1413// 1414//
f 1414// 1413// 1415//
f 1414// 1415// 1416//
f 1417// 1418// 1419//
f 1419// 1418// 1420//
f 1415// 1421// 1416//
f 1416// 1421// 1422//
f 1416// 1422// 1423//
f 1422// 1424// 1423//
f 1423// 1424// 1425//
f 1423// 1425// 1426//
f 1426// 1425// 1427//
f 1426// 1427// 1420//
f 1420// 1427// 1428//
f 1420// 1428// 1419//
f 1420// 1418// 1397//
f 1397// 1418// 1398//
f 1418// 1417// 1398//
f 1398// 1417// 1399//
f 1417// 1419// 1399//
f 1399// 1419// 1403//
f 1411// 1389// 1391//
f 1411// 1391// 1413//
f 1413// 1391// 1393//
f 1413// 1393// 1415//
f 1415// 1393// 1395//
f 1415// 1395// 1421//
f 1421// 1395// 1402//
f 1421// 1402// 1422//
f 1422// 1402// 1401//
f 1422// 1401// 1424//
f 1424// 1401// 1407//
f 1424// 1407// 1425//
f 1425// 1407// 1406//
f 1425// 1406// 1427//
f 1427// 1406// 1404//
f 1427// 1404// 1428//
f 1428// 1404// 1403//
f 1428// 1403// 1419//
f 1411// 1409// 1389//
f 1389// 1409// 1387//
f 1409// 1408// 1387//
f 1387// 1408// 1388//
f 1408// 1410// 1388//
f 1388// 1410// 1390//
f 1410// 1412// 1390//
f 1390// 1412// 1392//
f 1412// 1414// 1392//
f 1392// 1414// 1394//
f 1414// 1416// 1394//
f 1394// 1416// 1396//
f 1416// 1423// 1396//
f 1396// 1423// 1400//
f 1423// 1426// 1400//
f 1400// 1426// 1405//
f 1426// 1420// 1405//
f 1405// 1420// 1397//
